<svg width="52" height="24" viewBox="0 0 52 24" fill="none" xmlns="http://www.w3.org/2000/svg">
<g clip-path="url(#clip0_829_2833)">
<rect width="52" height="24" rx="12" fill="#262626"/>
<path d="M9.23295 17V6.81818H12.7926C13.5019 6.81818 14.0869 6.94081 14.5476 7.18608C15.0083 7.42803 15.3513 7.7545 15.5767 8.16548C15.8021 8.57315 15.9148 9.02557 15.9148 9.52273C15.9148 9.96023 15.8369 10.3215 15.6811 10.6065C15.5286 10.8916 15.3265 11.117 15.0746 11.2827C14.826 11.4484 14.5559 11.571 14.2642 11.6506V11.75C14.5758 11.7699 14.889 11.8793 15.2038 12.0781C15.5187 12.277 15.7822 12.562 15.9943 12.9332C16.2064 13.3045 16.3125 13.7585 16.3125 14.2955C16.3125 14.8059 16.1965 15.2649 15.9645 15.6726C15.7325 16.0803 15.3662 16.4034 14.8658 16.642C14.3653 16.8807 13.714 17 12.9119 17H9.23295ZM10.4659 15.9062H12.9119C13.7173 15.9062 14.2891 15.7505 14.6271 15.4389C14.9685 15.1241 15.1392 14.7429 15.1392 14.2955C15.1392 13.9508 15.0514 13.6326 14.8757 13.3409C14.7 13.0459 14.4498 12.8106 14.125 12.6349C13.8002 12.456 13.4157 12.3665 12.9716 12.3665H10.4659V15.9062ZM10.4659 11.2926H12.7528C13.1241 11.2926 13.4588 11.2197 13.7571 11.0739C14.0587 10.928 14.2973 10.7225 14.473 10.4574C14.652 10.1922 14.7415 9.88068 14.7415 9.52273C14.7415 9.07528 14.5857 8.69579 14.2741 8.38423C13.9626 8.06937 13.4688 7.91193 12.7926 7.91193H10.4659V11.2926ZM18.3384 17V6.81818H24.4833V7.91193H19.5714V11.3523H24.1651V12.446H19.5714V15.9062H24.5629V17H18.3384ZM26.1488 7.91193V6.81818H33.7852V7.91193H30.5835V17H29.3505V7.91193H26.1488ZM34.9162 17H33.6236L37.3622 6.81818H38.6349L42.3736 17H41.081L38.0384 8.42898H37.9588L34.9162 17ZM35.3935 13.0227H40.6037V14.1165H35.3935V13.0227Z" fill="#F2F2F2"/>
</g>
<defs>
<clipPath id="clip0_829_2833">
<rect width="52" height="24" fill="white"/>
</clipPath>
</defs>
</svg>
