<svg width="24" height="24" viewBox="0 0 24 24" fill="none" xmlns="http://www.w3.org/2000/svg">
<g id="Group 4 Copy 2">
<g id="&#244;&#128;&#173;&#135;">
<path id="Shape" fillRule="evenodd" clipRule="evenodd" d="M3 11.8985C3 13.0093 3.19853 14.0635 3.59559 15.0609C3.99265 16.0584 4.53971 16.9497 5.23676 17.7348C5.93382 18.52 6.72647 19.1539 7.61471 19.6367C7.79706 19.7355 7.97059 19.7763 8.13529 19.7588C8.3 19.7414 8.43676 19.6803 8.54559 19.5756C8.65441 19.4709 8.725 19.3459 8.75735 19.2005C8.78971 19.0551 8.77059 18.9053 8.7 18.7512C8.62941 18.5971 8.49118 18.4618 8.28529 18.3455C7.54412 17.9384 6.88971 17.4091 6.32206 16.7578C5.75441 16.1064 5.31029 15.3663 4.98971 14.5375C4.66912 13.7087 4.50882 12.829 4.50882 11.8985C4.50882 10.8691 4.70147 9.9065 5.08676 9.01084C5.47206 8.11517 6.00588 7.32711 6.68824 6.64663C7.37059 5.96616 8.16471 5.43545 9.07059 5.0545C9.97647 4.67355 10.95 4.48308 11.9912 4.48308C13.0324 4.48308 14.0074 4.67355 14.9162 5.0545C15.825 5.43545 16.6221 5.96616 17.3074 6.64663C17.9926 7.32711 18.5294 8.11517 18.9176 9.01084C19.3059 9.9065 19.5 10.8691 19.5 11.8985C19.5 12.1602 19.5838 12.355 19.7515 12.483C19.9191 12.6109 20.1 12.6749 20.2941 12.6749C20.4706 12.6749 20.6324 12.6095 20.7794 12.4786C20.9265 12.3478 21 12.1544 21 11.8985C21 10.6829 20.7647 9.53864 20.2941 8.46559C19.8235 7.39254 19.1735 6.44598 18.3441 5.62593C17.5147 4.80587 16.5559 4.1632 15.4676 3.69792C14.3794 3.23264 13.2206 3 11.9912 3C10.7618 3 9.60441 3.23264 8.51912 3.69792C7.43382 4.1632 6.47794 4.80587 5.65147 5.62593C4.825 6.44598 4.17647 7.39254 3.70588 8.46559C3.23529 9.53864 3 10.6829 3 11.8985ZM6.56471 11.8985C6.56471 12.5441 6.67206 13.1489 6.88676 13.7131C7.10147 14.2772 7.38824 14.7803 7.74706 15.2223C8.10588 15.6643 8.5 16.022 8.92941 16.2954C9.15294 16.4408 9.36029 16.4931 9.55147 16.4524C9.74265 16.4117 9.89265 16.3157 10.0015 16.1645C10.1103 16.0133 10.1574 15.8476 10.1426 15.6673C10.1279 15.487 10.0265 15.3328 9.83824 15.2049C9.29118 14.8501 8.85147 14.3834 8.51912 13.8047C8.18676 13.226 8.02059 12.5906 8.02059 11.8985C8.02059 11.346 8.12206 10.8327 8.325 10.3587C8.52794 9.88469 8.81176 9.4674 9.17647 9.1068C9.54118 8.74621 9.96323 8.46413 10.4426 8.26057C10.9221 8.05701 11.4382 7.95523 11.9912 7.95523C12.5441 7.95523 13.0588 8.05701 13.5353 8.26057C14.0118 8.46413 14.4294 8.74476 14.7882 9.10244C15.1471 9.46013 15.4309 9.87742 15.6397 10.3543C15.8485 10.8312 15.9618 11.346 15.9794 11.8985C15.9912 12.0962 16.0647 12.2649 16.2 12.4045C16.3353 12.5441 16.5059 12.6139 16.7118 12.6139C16.9118 12.6139 17.0824 12.5441 17.2235 12.4045C17.3647 12.2649 17.4353 12.0962 17.4353 11.8985C17.4353 11.1599 17.2941 10.4663 17.0118 9.81781C16.7294 9.16933 16.3368 8.5979 15.8338 8.10354C15.3309 7.60918 14.7515 7.22096 14.0956 6.93889C13.4397 6.65681 12.7382 6.51577 11.9912 6.51577C11.25 6.51577 10.5515 6.65681 9.89559 6.93889C9.23971 7.22096 8.66176 7.60918 8.16176 8.10354C7.66176 8.5979 7.27059 9.16933 6.98824 9.81781C6.70588 10.4663 6.56471 11.1599 6.56471 11.8985ZM11.8853 18.5375C11.7324 18.4909 11.6588 18.3833 11.6647 18.2147L11.7441 11.2529C11.7441 11.0901 11.8103 10.9839 11.9426 10.9345C12.075 10.885 12.1971 10.9156 12.3088 11.0261L17.1353 15.929C17.2529 16.0511 17.2809 16.1762 17.2191 16.3041C17.1574 16.4321 17.0441 16.4989 16.8794 16.5048L14.9735 16.5833L16.5618 20.2125C16.5971 20.2939 16.6015 20.3753 16.575 20.4567C16.5485 20.5382 16.4971 20.5963 16.4206 20.6312L15.5382 20.9802C15.4618 21.0093 15.3838 21.0063 15.3044 20.9714C15.225 20.9366 15.1676 20.8784 15.1324 20.797L13.6235 17.1154L12.2824 18.4502C12.1706 18.5549 12.0382 18.584 11.8853 18.5375Z" fill="#57BD53"/>
</g>
</g>
</svg>
