<?xml version="1.0" encoding="UTF-8"?>
<svg width="24px" height="24px" viewBox="0 0 24 24" version="1.1" xmlns="http://www.w3.org/2000/svg" xmlns:xlink="http://www.w3.org/1999/xlink">
    <title>Компании@1,5x</title>
    <g id="UX/UI" stroke="none" stroke-width="1" fill="none" fillRule="evenodd">
        <g id="main:page-copy-39" transform="translate(-38.000000, -282.000000)">
            <g id="Group-28" transform="translate(32.000000, 72.000000)">
                <g id="Компании" transform="translate(6.000000, 210.000000)">
                    <rect id="Rectangle" opacity="0" x="0" y="0" width="24" height="24"></rect>
                    <g id="􁙠" transform="translate(3.000000, 4.000000)" fill="#F2F2F2" fillRule="nonzero">
                        <path d="M3.46175007,6.8884693 C4.09025413,6.8884693 4.66609903,6.73127591 5.18928478,6.41688912 C5.71247053,6.10250233 6.1309056,5.68526597 6.44458999,5.16518002 C6.75827439,4.64509408 6.91511658,4.06992643 6.91511658,3.43967706 C6.91511658,2.81541767 6.75827439,2.24198624 6.44458999,1.71938277 C6.1309056,1.1967793 5.71247053,0.779564642 5.18928478,0.467738785 C4.66609903,0.155912928 4.09025413,0 3.46175007,0 C2.82765697,0 2.24901755,0.155912928 1.72583181,0.467738785 C1.20264606,0.779564642 0.784210986,1.1967793 0.470526592,1.71938277 C0.156842197,2.24198624 0,2.81541767 0,3.43967706 C0,4.06497819 0.156842197,4.63890878 0.470526592,5.16146885 C0.784210986,5.68402891 1.20391232,6.10250233 1.7296306,6.41688912 C2.25534888,6.73127591 2.83272203,6.8884693 3.46175007,6.8884693 Z M3.46175007,5.63018426 C3.06405554,5.63018426 2.69793031,5.53022115 2.36337438,5.33029494 C2.02881844,5.13036873 1.76095974,4.86411876 1.55979827,4.53154502 C1.3586368,4.19897129 1.25805606,3.8350153 1.25805606,3.43967706 C1.25805606,3.04477288 1.3586368,2.68116414 1.55979827,2.34885084 C1.76095974,2.01653753 2.02881844,1.75028756 2.36337438,1.55010092 C2.69793031,1.34991427 3.06405554,1.24982095 3.46175007,1.24982095 C3.85900795,1.24982095 4.22364859,1.34991427 4.55567199,1.55010092 C4.8876954,1.75028756 5.154397,2.01653753 5.35577679,2.34885084 C5.55715658,2.68116414 5.65784648,3.04477288 5.65784648,3.43967706 C5.65784648,3.8350153 5.55715658,4.19897129 5.35577679,4.53154502 C5.154397,4.86411876 4.8876954,5.13036873 4.55567199,5.33029494 C4.22364859,5.53022115 3.85900795,5.63018426 3.46175007,5.63018426 Z M3.46175007,16 C4.09025413,16 4.66609903,15.8440871 5.18928478,15.5322612 C5.71247053,15.2204354 6.1309056,14.8032207 6.44458999,14.2806172 C6.75827439,13.7580138 6.91511658,13.1843219 6.91511658,12.5595416 C6.91511658,11.9298131 6.75827439,11.3550361 6.44458999,10.8352106 C6.1309056,10.3153851 5.71247053,9.89955943 5.18928478,9.58773358 C4.66609903,9.27590772 4.09025413,9.11999479 3.46175007,9.11999479 C2.82765697,9.11999479 2.24901755,9.27590772 1.72583181,9.58773358 C1.20264606,9.89955943 0.784210986,10.3166439 0.470526592,10.8389869 C0.156842197,11.3613299 0,11.9348482 0,12.5595416 C0,13.1843219 0.156842197,13.7580138 0.470526592,14.2806172 C0.784210986,14.8032207 1.20391232,15.2204354 1.7296306,15.5322612 C2.25534888,15.8440871 2.83272203,16 3.46175007,16 Z M3.46175007,14.750179 C3.06405554,14.750179 2.69793031,14.6502159 2.36337438,14.4502897 C2.02881844,14.2503635 1.76095974,13.9841135 1.55979827,13.6515398 C1.3586368,13.3189661 1.25805606,12.9549667 1.25805606,12.5595416 C1.25805606,12.1647243 1.3586368,11.8010287 1.55979827,11.468455 C1.76095974,11.1358812 2.02881844,10.8696313 2.36337438,10.6697051 C2.69793031,10.4697788 3.06405554,10.3698157 3.46175007,10.3698157 C3.85900795,10.3698157 4.22364859,10.4697788 4.55567199,10.6697051 C4.8876954,10.8696313 5.154397,11.1358812 5.35577679,11.468455 C5.55715658,11.8010287 5.65784648,12.1647243 5.65784648,12.5595416 C5.65784648,12.9549667 5.55715658,13.3189661 5.35577679,13.6515398 C5.154397,13.9841135 4.8876954,14.2503635 4.55567199,14.4502897 C4.22364859,14.6502159 3.85900795,14.750179 3.46175007,14.750179 Z M9.36455331,4.10026694 L17.3370448,4.10026694 C17.5192996,4.10026694 17.6753559,4.03682965 17.8052135,3.90995508 C17.9350712,3.7830805 18,3.62935955 18,3.44879224 C18,3.26761725 17.9350712,3.11485123 17.8052135,2.99049417 C17.6753559,2.86613712 17.5192996,2.80395859 17.3370448,2.80395859 L9.36455331,2.80395859 C9.18229849,2.80395859 9.02877478,2.86613712 8.90398218,2.99049417 C8.77918959,3.11485123 8.71679329,3.26761725 8.71679329,3.44879224 C8.71679329,3.62935955 8.77918959,3.7830805 8.90398218,3.90995508 C9.02877478,4.03682965 9.18229849,4.10026694 9.36455331,4.10026694 Z M9.36455331,13.21922 L17.3370448,13.21922 C17.5192996,13.21922 17.6753559,13.1559129 17.8052135,13.0292988 C17.9350712,12.9026846 18,12.7487901 18,12.5676151 C18,12.3864401 17.9350712,12.2336741 17.8052135,12.109317 C17.6753559,11.98496 17.5192996,11.9227814 17.3370448,11.9227814 L9.36455331,11.9227814 C9.18229849,11.9227814 9.02877478,11.98496 8.90398218,12.109317 C8.77918959,12.2336741 8.71679329,12.3864401 8.71679329,12.5676151 C8.71679329,12.7487901 8.77918959,12.9026846 8.90398218,13.0292988 C9.02877478,13.1559129 9.18229849,13.21922 9.36455331,13.21922 Z" id="Shape"></path>
                    </g>
                </g>
            </g>
        </g>
    </g>
</svg>