<svg width="36" height="36" viewBox="0 0 36 36" fill="none" xmlns="http://www.w3.org/2000/svg">
<rect width="36" height="36" rx="18" fill="white"/>
<path d="M27.9998 17.741C27.9998 17.027 27.9433 16.3099 27.8245 15.6079H18.2012V19.6505H23.7114C23.4816 20.9579 22.7448 22.1109 21.6722 22.8412V25.4662H24.9607C26.8911 23.6362 27.9998 20.9361 27.9998 17.741V17.741Z" fill="#4285F4"/>
<path d="M18.2029 28C20.9537 28 23.274 27.0699 24.9639 25.4649L21.6769 22.8413C20.7624 23.4818 19.5812 23.8448 18.2058 23.8448C15.5449 23.8448 13.2884 21.9968 12.4783 19.5127H9.08691V22.2173C10.8294 25.7694 14.354 28.0052 18.2029 28Z" fill="#34A853"/>
<path d="M12.4738 19.5128C12.0464 18.2093 12.0464 16.7962 12.4738 15.4927V12.7881H9.08533C7.63822 15.7528 7.63822 19.2527 9.08533 22.2174L12.4738 19.5128V19.5128Z" fill="#FBBC04"/>
<path d="M18.2029 11.1544C19.656 11.13 21.0606 11.6954 22.116 12.7295L25.0291 9.73088C23.1777 7.94592 20.7329 6.96813 18.2029 7.00079C14.3529 6.99574 10.8277 9.23365 9.08691 12.788L12.4725 15.4896C13.2783 13.0025 15.5391 11.1544 18.2 11.1544H18.2029Z" fill="#EA4335"/>
</svg>
