<svg width="36" height="36" viewBox="0 0 36 36" fill="none" xmlns="http://www.w3.org/2000/svg">
<g opacity="0.9">
<rect width="36" height="36" rx="18" fill="white"/>
<path d="M29.1365 13.835C29.0391 12.5595 28.0656 10.9243 27.0921 10.1394C25.9973 9.33611 24.8597 8.59372 23.6846 7.91546C22.5183 7.21886 21.3159 6.58566 20.0824 6.0186C19.4235 5.74776 18.717 5.61425 18.0055 5.62614C17.2938 5.6111 16.5866 5.74472 15.9286 6.0186C14.6953 6.58605 13.4929 7.2192 12.3264 7.91546C10.4442 9.06015 8.91897 10.1394 8.91897 10.1394C8.10841 10.823 7.49681 11.7054 7.13686 12.6924C7.07251 12.869 7.20751 13.05 7.39544 13.05H8.95138C9.1604 13.05 9.34991 12.9326 9.45954 12.7547C9.73668 12.3049 10.086 11.8989 10.4973 11.5543C10.4973 11.5543 11.7567 10.6693 13.3108 9.73071C14.2739 9.15977 15.2667 8.64052 16.285 8.17528C16.8283 7.95067 17.4122 7.8411 17.9999 7.85342C18.5873 7.84369 19.1707 7.95315 19.7148 8.17528C20.7332 8.64019 21.726 9.15943 22.689 9.73071C23.6593 10.2868 24.5985 10.8956 25.5024 11.5543C26.3063 12.1979 27.1101 13.5388 27.1905 14.5847C27.1905 14.5847 27.3781 16.1401 27.4049 17.9825C27.4032 19.1203 27.3406 20.2572 27.2173 21.3883C27.0304 22.5727 26.4212 23.6492 25.5024 24.4187C25.5024 24.4187 24.2431 25.3305 22.689 26.2692C21.7259 26.8401 20.733 27.3593 19.7148 27.8246C19.1714 28.0492 18.5876 28.1588 17.9999 28.1464C17.413 28.1587 16.8296 28.052 16.285 27.8326C15.2666 27.3677 14.2738 26.8484 13.3108 26.2772C11.7567 25.3654 10.4973 24.4268 10.4973 24.4268C10.1388 24.1398 9.78033 23.714 9.48367 23.2376C9.37499 23.0632 9.18762 22.9499 8.98209 22.9499H7.40202C7.21167 22.9499 7.07679 23.1349 7.14693 23.3119C7.53607 24.2937 8.22755 25.2801 8.91897 25.8376C8.91897 25.8376 10.4442 26.9822 12.3264 28.0941C13.4927 28.7908 14.6951 29.424 15.9286 29.991C16.5882 30.2585 17.2947 30.3887 18.0055 30.3737C18.7173 30.3887 19.4244 30.2551 20.0824 29.9812C21.3157 29.4138 22.5181 28.7806 23.6846 28.0843C25.5668 26.9397 27.0921 25.8277 27.0921 25.8277C28.2047 24.8892 28.9425 23.5765 29.169 22.1321C29.3183 20.7527 29.3941 19.3662 29.3961 17.9786C29.3637 15.7318 29.1365 13.835 29.1365 13.835Z" fill="url(#paint0_linear_1_48)"/>
<path d="M6.61523 15.2787C6.61523 15.0053 6.83686 14.7837 7.11023 14.7837H14.7827C15.0561 14.7837 15.2777 15.0053 15.2777 15.2787V16.7637C15.2777 17.0371 15.0561 17.2587 14.7827 17.2587H6.61523V15.2787Z" fill="#0066B3"/>
<path d="M6.61475 18.7432H22.2072C22.4806 18.7432 22.7022 18.9648 22.7022 19.2382V20.7232C22.7022 20.9965 22.4806 21.2182 22.2072 21.2182H7.10975C6.83637 21.2182 6.61475 20.9965 6.61475 20.7232V18.7432Z" fill="#EE2F53"/>
</g>
<defs>
<linearGradient id="paint0_linear_1_48" x1="7.069" y1="5.62502" x2="7.069" y2="30.3748" gradientUnits="userSpaceOnUse">
<stop stop-color="#0066B3"/>
<stop offset="0.354167" stop-color="#0066B3"/>
<stop offset="0.6875" stop-color="#EE2F53"/>
<stop offset="1" stop-color="#EE2F53"/>
</linearGradient>
</defs>
</svg>
