<svg width="20" height="20" viewBox="0 0 20 20" fill="none" xmlns="http://www.w3.org/2000/svg">
<g id="gosuslugiID_znak_L">
<rect id="Rectangle" width="20" height="20" rx="10" fill="white"/>
<path id="Path" d="M16.1871 7.6861C16.133 6.97751 15.5921 6.06904 15.0513 5.63298C14.4431 5.18673 13.8111 4.77429 13.1583 4.39748C12.5103 4.01048 11.8423 3.6587 11.1571 3.34367C10.791 3.1932 10.3985 3.11903 10.0032 3.12564C9.60781 3.11728 9.21493 3.19151 8.84937 3.34367C8.16424 3.65892 7.49621 4.01067 6.84818 4.39748C5.80249 5.03342 4.95515 5.63298 4.95515 5.63298C4.50484 6.01279 4.16506 6.50298 3.96509 7.05135C3.92934 7.14945 4.00434 7.24998 4.10874 7.24998H4.97315C5.08927 7.24998 5.19456 7.18479 5.25546 7.08595C5.40943 6.83607 5.60349 6.61048 5.83202 6.41904C5.83202 6.41904 6.53165 5.92739 7.39506 5.40595C7.93012 5.08876 8.48168 4.80029 9.0474 4.54182C9.34921 4.41704 9.67362 4.35617 10.0001 4.36301C10.3265 4.3576 10.6506 4.41842 10.9528 4.54182C11.5186 4.8001 12.0702 5.08857 12.6051 5.40595C13.1442 5.71492 13.666 6.0531 14.1682 6.41904C14.6148 6.7766 15.0613 7.52154 15.106 8.1026C15.106 8.1026 15.2102 8.96673 15.2251 9.99026C15.2242 10.6224 15.1894 11.254 15.1209 11.8824C15.017 12.5404 14.6786 13.1384 14.1682 13.5659C14.1682 13.5659 13.4686 14.0725 12.6051 14.594C12.0701 14.9112 11.5185 15.1996 10.9528 15.4581C10.651 15.5829 10.3266 15.6438 10.0001 15.6369C9.67402 15.6437 9.34996 15.5844 9.0474 15.4626C8.48159 15.2043 7.93002 14.9158 7.39506 14.5984C6.53165 14.0919 5.83202 13.5704 5.83202 13.5704C5.63284 13.411 5.43368 13.1744 5.26887 12.9098C5.20849 12.8129 5.1044 12.7499 4.99021 12.7499H4.1124C4.00665 12.7499 3.93171 12.8527 3.97068 12.951C4.18687 13.4965 4.57102 14.0445 4.95515 14.3542C4.95515 14.3542 5.80249 14.9901 6.84818 15.6079C7.49609 15.9949 8.16412 16.3467 8.84937 16.6617C9.21581 16.8103 9.60831 16.8826 10.0032 16.8743C10.3986 16.8826 10.7915 16.8084 11.1571 16.6562C11.8422 16.341 12.5102 15.9892 13.1583 15.6024C14.2039 14.9665 15.0513 14.3487 15.0513 14.3487C15.6695 13.8274 16.0793 13.098 16.2051 12.2956C16.2881 11.5293 16.3302 10.759 16.3313 9.98814C16.3133 8.73992 16.1871 7.6861 16.1871 7.6861Z" fill="url(#paint0_linear_1350_33)"/>
<path id="Path_2" d="M3.6748 8.48789C3.6748 8.33602 3.79793 8.21289 3.9498 8.21289H8.2123C8.36418 8.21289 8.4873 8.33602 8.4873 8.48789V9.31289C8.4873 9.46477 8.36418 9.58789 8.2123 9.58789H3.6748V8.48789Z" fill="#0066B3"/>
<path id="Path_3" d="M3.6748 10.4131H12.3373C12.4892 10.4131 12.6123 10.5362 12.6123 10.6881V11.5131C12.6123 11.665 12.4892 11.7881 12.3373 11.7881H3.9498C3.79793 11.7881 3.6748 11.665 3.6748 11.5131V10.4131Z" fill="#EE2F53"/>
</g>
<defs>
<linearGradient id="paint0_linear_1350_33" x1="3.92738" y1="3.12501" x2="3.92738" y2="16.8749" gradientUnits="userSpaceOnUse">
<stop stop-color="#0066B3"/>
<stop offset="0.354167" stop-color="#0066B3"/>
<stop offset="0.6875" stop-color="#EE2F53"/>
<stop offset="1" stop-color="#EE2F53"/>
</linearGradient>
</defs>
</svg>
