<svg width="65" height="32" viewBox="0 0 65 32" fill="none" xmlns="http://www.w3.org/2000/svg">
<g id="logo_w (1)">
<g id="Group">
<path id="Shape" fillRule="evenodd" clipRule="evenodd" d="M3.92661 5.19684C3.92661 5.45833 3.89416 5.65445 3.7968 5.85057C3.69945 6.014 3.6021 6.17743 3.43984 6.30818C3.31003 6.43892 3.14778 6.53698 2.95307 6.60236C2.79081 6.66773 2.59611 6.70042 2.4014 6.7331V7.19071H1.52521V6.7331C1.2656 6.70042 1.00599 6.63504 0.811283 6.53698C0.616575 6.43892 0.454319 6.30818 0.324513 6.17743C0.194708 6.04669 0.129805 5.85057 0.0649026 5.65445C0 5.45833 0 5.26221 0 5.03341V3.1376C0 2.90879 0.0324513 2.67999 0.129805 2.48387C0.227159 2.28775 0.324513 2.157 0.48677 2.02626C0.616575 1.89551 0.778832 1.79745 0.97354 1.73208C1.1358 1.66671 1.3305 1.63402 1.52521 1.63402V1.33984H2.43385V1.63402C2.60383 1.63402 2.74907 1.68384 2.91277 1.73999C2.93658 1.74816 2.96079 1.75646 2.98552 1.76477C3.14778 1.83014 3.31003 1.9282 3.47229 2.05894C3.6021 2.18969 3.7319 2.35312 3.82926 2.51655C3.92661 2.71267 3.95906 2.90879 3.95906 3.17028V5.19684H3.92661ZM1.52521 2.35312C1.51417 2.35471 1.50336 2.35638 1.49276 2.35813V2.35312H1.52521ZM1.49276 2.35813C1.28543 2.39232 1.16194 2.45754 1.03844 2.58193C0.908637 2.67999 0.843734 2.84342 0.843734 3.07222V5.2949C0.843734 5.39296 0.876186 5.49102 0.908637 5.58908C0.941088 5.65445 1.00599 5.75251 1.07089 5.7852C1.1358 5.85057 1.2007 5.88326 1.2656 5.91594C1.29805 5.93229 1.33862 5.94046 1.37918 5.94863C1.41975 5.9568 1.46031 5.96497 1.49276 5.98131V2.35813ZM2.88817 2.58193C3.01797 2.67999 3.08288 2.84342 3.08288 3.07222V5.2949C3.08288 5.39296 3.05042 5.49102 3.01797 5.55639C2.98552 5.65445 2.92062 5.71982 2.88817 5.75251C2.83859 5.80245 2.77007 5.83331 2.71155 5.85968C2.69346 5.86782 2.67633 5.87554 2.66101 5.88326C2.59611 5.91594 2.49875 5.94863 2.43385 5.94863V2.35312C2.62856 2.38581 2.75836 2.45118 2.88817 2.58193Z" fill="white"/>
<path id="Shape_2" fillRule="evenodd" clipRule="evenodd" d="M8.04784 6.8326C8.275 6.57111 8.40481 6.21156 8.40481 5.68857V2.84486C8.40481 2.58336 8.37236 2.38725 8.33991 2.19113C8.30745 1.99501 8.2101 1.83158 8.11275 1.70083C8.01539 1.57009 7.88559 1.47203 7.69088 1.40665C7.49617 1.34128 7.26901 1.30859 7.0094 1.30859C6.74979 1.30859 6.55508 1.34128 6.36037 1.40665C6.16567 1.50471 6.00341 1.60277 5.90606 1.73352C5.77625 1.86426 5.71135 2.02769 5.64645 2.22381C5.61399 2.41993 5.58154 2.61605 5.58154 2.84486V5.78663C5.58154 6.24424 5.6789 6.60379 5.90606 6.86528C6.13322 7.09409 6.49018 7.22483 6.97695 7.22483C7.46372 7.22483 7.82068 7.09409 8.04784 6.8326ZM7.39882 2.32187C7.46372 2.45262 7.49617 2.58336 7.49617 2.7468V5.72126C7.49617 5.88469 7.43127 6.04812 7.36637 6.17887C7.30146 6.30962 7.17166 6.37499 6.97695 6.37499C6.78224 6.37499 6.65244 6.30962 6.58753 6.17887C6.49018 6.08081 6.45773 5.95006 6.45773 5.78663V2.84486C6.45773 2.81547 6.46429 2.78609 6.4715 2.75373C6.48035 2.71411 6.49018 2.67003 6.49018 2.61605C6.49986 2.58679 6.50666 2.56043 6.51315 2.53525C6.52841 2.47606 6.542 2.42335 6.58753 2.35456C6.61999 2.28919 6.68489 2.22381 6.74979 2.19113C6.81469 2.15844 6.91205 2.12575 7.0094 2.12575C7.20411 2.12575 7.33391 2.19113 7.39882 2.32187Z" fill="white"/>
<path id="Path" d="M12.0721 7.19071V4.64117H11.0336V7.19071H10.125V1.33984H11.0336V3.79132H12.0721V1.33984H12.9807V7.19071H12.0721Z" fill="white"/>
<path id="Shape_3" fillRule="evenodd" clipRule="evenodd" d="M15.1221 8.30205V7.19071H17.4261V8.30205H18.205V6.37355H17.848V1.33984H15.2194L15.1221 4.90266C15.1221 5.26221 15.0896 5.55639 15.0247 5.7852C14.9598 6.014 14.8625 6.21012 14.7002 6.37355L14.3433 6.43892V8.30205H15.1221ZM15.8685 5.75251C15.9009 5.49102 15.9334 5.19684 15.9334 4.86998L15.9983 2.18969H16.9394V6.37355H15.6738C15.7711 6.21012 15.836 5.98131 15.8685 5.75251Z" fill="white"/>
<path id="Path_2" d="M23.6894 1.27344C23.9165 1.27344 24.1437 1.30612 24.3059 1.3715C24.4682 1.43687 24.6304 1.53493 24.7278 1.66567C24.8576 1.79642 24.9225 1.92717 24.9874 2.0906C25.0523 2.25403 25.0523 2.45015 25.0523 2.64627L24.1761 2.87507C24.1761 2.64627 24.1437 2.48283 24.0463 2.35209C23.9814 2.22134 23.8516 2.15597 23.6569 2.15597C23.5595 2.15597 23.4622 2.18866 23.3973 2.22134C23.3648 2.25403 23.2999 2.28672 23.2675 2.35209C23.235 2.41746 23.2026 2.48283 23.2026 2.58089C23.2026 2.64627 23.1701 2.74433 23.1701 2.8097V5.78416C23.1701 5.84954 23.1701 5.91491 23.2026 5.98028C23.2026 6.04565 23.235 6.11103 23.2675 6.1764C23.2999 6.24177 23.3648 6.27446 23.4297 6.33983C23.4946 6.37252 23.5595 6.4052 23.6894 6.4052C24.0139 6.4052 24.2086 6.1764 24.2086 5.6861C24.3708 5.71879 24.5006 5.75148 24.6629 5.75148C24.8251 5.78416 24.955 5.78416 25.1172 5.81685C25.1172 6.27446 24.9874 6.60132 24.7602 6.86281C24.5331 7.12431 24.1761 7.25505 23.7218 7.25505C23.235 7.25505 22.8781 7.12431 22.6509 6.8955C22.4238 6.6667 22.2939 6.30715 22.2939 5.81685V2.87507C22.2939 2.64627 22.3264 2.45015 22.3588 2.25403C22.3913 2.05791 22.4887 1.89448 22.586 1.73105C22.6834 1.6003 22.8456 1.46956 23.0403 1.3715C23.2026 1.30612 23.4297 1.27344 23.6894 1.27344Z" fill="white"/>
<path id="Shape_4" fillRule="evenodd" clipRule="evenodd" d="M29.0439 6.8326C29.2711 6.57111 29.4009 6.21156 29.4009 5.68857V2.84486C29.4009 2.58336 29.3685 2.38725 29.336 2.19113C29.3035 1.99501 29.2062 1.83158 29.1088 1.70083C29.0115 1.57009 28.8817 1.47203 28.687 1.40665C28.4923 1.34128 28.2651 1.30859 28.0055 1.30859C27.7459 1.30859 27.5512 1.34128 27.3565 1.40665C27.1618 1.50471 26.9995 1.60277 26.9021 1.73352C26.7723 1.86426 26.7074 2.02769 26.6425 2.22381C26.6101 2.41993 26.5776 2.61605 26.5776 2.84486V5.78663C26.5776 6.24424 26.675 6.60379 26.9021 6.86528C27.1293 7.09409 27.4863 7.22483 27.973 7.22483C28.4598 7.22483 28.8168 7.09409 29.0439 6.8326ZM28.3949 2.32187C28.4598 2.45262 28.4923 2.58336 28.4923 2.7468H28.5247V5.68857C28.5247 5.85201 28.4598 6.01544 28.3949 6.14618C28.33 6.27693 28.2002 6.3423 28.0055 6.3423C27.8108 6.3423 27.681 6.27693 27.6161 6.14618C27.5187 6.04812 27.4863 5.91738 27.4863 5.75395V2.81217C27.4863 2.78278 27.4928 2.7534 27.5 2.72105C27.5089 2.68142 27.5187 2.63735 27.5187 2.58336C27.5187 2.51799 27.5512 2.41993 27.5836 2.35456C27.6161 2.28919 27.681 2.22381 27.7459 2.19113C27.8108 2.15844 27.9081 2.12575 28.0055 2.12575C28.2002 2.12575 28.33 2.19113 28.3949 2.32187Z" fill="white"/>
<path id="Shape_5" fillRule="evenodd" clipRule="evenodd" d="M31.5103 8.30205V7.19071H33.8143V8.30205H34.5932V6.37355H34.2362V1.33984H31.6076L31.5103 4.90266C31.5103 5.26221 31.4778 5.55639 31.4129 5.7852C31.348 6.014 31.2507 6.21012 31.0884 6.37355L30.7314 6.43892V8.30205H31.5103ZM32.2567 5.75251C32.2891 5.49102 32.3216 5.19684 32.3216 4.86998L32.3865 2.18969H33.3276V6.37355H32.0619C32.1593 6.21012 32.2242 5.98131 32.2567 5.75251Z" fill="white"/>
<path id="Path_3" d="M36.0859 7.19071V1.33984H38.682V2.18969H36.9946V3.79132H38.4549V4.64117H36.9946V6.34087H38.682V7.19071H36.0859Z" fill="white"/>
<path id="Shape_6" fillRule="evenodd" clipRule="evenodd" d="M41.213 0.196118C41.1805 0.130746 41.1481 0.0653728 41.1481 0H40.5315C40.5315 0.130746 40.564 0.261491 40.5964 0.392236L40.5964 0.392237C40.6289 0.555669 40.6938 0.653728 40.7911 0.784474C40.8885 0.91522 40.9858 1.01328 41.1481 1.07865C41.3103 1.14402 41.4726 1.17671 41.6998 1.17671C41.8945 1.17671 42.0892 1.14402 42.219 1.07865C42.2542 1.05202 42.2895 1.0278 42.3241 1.00403C42.4169 0.940262 42.505 0.879711 42.5759 0.784474C42.6733 0.653729 42.7382 0.522984 42.8031 0.39224L42.8031 0.392237C42.868 0.261491 42.9005 0.130746 42.9005 0H42.219C42.219 0.0653728 42.219 0.130746 42.1865 0.196118L42.0892 0.392237C42.0567 0.424923 41.9918 0.490296 41.9269 0.522983C41.862 0.555669 41.7971 0.588355 41.6998 0.588355C41.6349 0.588355 41.5699 0.555669 41.505 0.522983C41.4401 0.490296 41.3752 0.45761 41.3428 0.392237C41.2779 0.326864 41.2454 0.261491 41.213 0.196118ZM41.0183 7.19101L42.219 3.49745L42.2839 7.19101H43.1601V1.34014H42.2839L41.0507 5.03371H41.0183V1.34014H40.1421V7.19101H41.0183Z" fill="white"/>
<path id="Path_4" d="M46.2433 1.27344C46.4704 1.27344 46.6976 1.30612 46.8599 1.3715C47.0221 1.43687 47.1844 1.53493 47.2817 1.66567C47.4115 1.79642 47.4764 1.92717 47.5413 2.0906C47.6062 2.25403 47.6062 2.45015 47.6062 2.64627L46.7301 2.87507C46.7301 2.64627 46.6976 2.48283 46.6003 2.35209C46.5353 2.22134 46.4055 2.15597 46.2108 2.15597C46.1135 2.15597 46.0161 2.18866 45.9512 2.22134C45.8863 2.25403 45.8214 2.3194 45.789 2.38478C45.7565 2.45015 45.7241 2.51552 45.7241 2.61358C45.7241 2.67895 45.6916 2.77701 45.6916 2.84239V5.81685C45.6916 5.88222 45.6916 5.94759 45.7241 6.01297C45.7241 6.07834 45.7565 6.14371 45.789 6.20909C45.8214 6.27446 45.8863 6.30715 45.9512 6.37252C46.0161 6.4052 46.1135 6.43789 46.2108 6.43789C46.5353 6.43789 46.7301 6.20909 46.7301 5.71879C46.8923 5.75148 47.0221 5.78416 47.1844 5.78416C47.3466 5.81685 47.4764 5.81685 47.6387 5.84954C47.6387 6.30715 47.5089 6.63401 47.2817 6.8955C47.0546 7.15699 46.6976 7.28774 46.2433 7.28774C45.7565 7.28774 45.3996 7.15699 45.1724 6.92819C44.9452 6.69938 44.8154 6.33983 44.8154 5.84954V2.87507C44.8154 2.64627 44.8479 2.45015 44.8803 2.25403C44.9128 2.05791 45.0101 1.89448 45.1075 1.73105C45.2048 1.6003 45.3671 1.46956 45.5618 1.3715C45.7565 1.30612 45.9837 1.27344 46.2433 1.27344Z" fill="white"/>
<path id="Path_5" d="M50.6241 2.18969V7.19071H49.7155V2.18969H48.7744V1.33984H51.5652V2.18969H50.6241Z" fill="white"/>
<path id="Shape_7" fillRule="evenodd" clipRule="evenodd" d="M55.07 4.11819C55.3296 4.21625 55.4919 4.34699 55.5892 4.60849C55.6866 4.83729 55.719 5.09878 55.719 5.42565C55.719 6.04669 55.5892 6.47161 55.3296 6.76579C55.07 7.05997 54.6806 7.19071 54.1289 7.19071H52.9282V1.33984H54.1938C54.713 1.33984 55.07 1.47059 55.3296 1.73208C55.5568 1.99357 55.6866 2.38581 55.6866 2.90879C55.6866 3.17028 55.6541 3.39909 55.5568 3.62789C55.4594 3.82401 55.2972 3.98744 55.07 4.0855V4.11819ZM54.8104 2.94148C54.8104 2.67999 54.7455 2.48387 54.6481 2.35312C54.5508 2.22238 54.3561 2.18969 54.1289 2.18969H53.8369V3.69327H54.1289C54.3561 3.69327 54.5508 3.62789 54.6481 3.49715C54.7455 3.3664 54.8104 3.17028 54.8104 2.94148ZM54.713 4.70654C54.8104 4.83729 54.8753 5.0661 54.8753 5.32759C54.8753 5.39296 54.8672 5.45833 54.8591 5.5237C54.851 5.58908 54.8429 5.65445 54.8429 5.71982C54.8104 5.85057 54.7779 5.94863 54.7455 6.04669C54.713 6.14475 54.6481 6.21012 54.5508 6.27549C54.4534 6.30818 54.3236 6.34087 54.1938 6.34087H53.8369V4.51043H54.1938C54.421 4.51043 54.6157 4.5758 54.713 4.70654Z" fill="white"/>
<path id="Path_6" d="M59.5156 3.49715L58.2824 7.19071H57.4062V1.33984H58.2824V5.03341H58.3149L59.548 1.33984H60.4242V7.19071H59.548L59.5156 3.49715Z" fill="white"/>
<path id="Shape_8" fillRule="evenodd" clipRule="evenodd" d="M62.2415 5.32759L61.917 7.19071V7.2234H62.8256L63.1177 5.55639C63.1826 5.22953 63.2799 5.03341 63.4098 4.90266C63.5396 4.77192 63.6694 4.70654 63.8316 4.70654H64.0588V7.19071H64.9674V1.33984H63.6369C63.1501 1.33984 62.7932 1.50328 62.5011 1.79745C62.2091 2.09163 62.0792 2.51655 62.0792 3.10491C62.0792 3.43177 62.1442 3.69327 62.2415 3.92207C62.3389 4.15088 62.5336 4.34699 62.7932 4.44505C62.6309 4.51043 62.5336 4.64117 62.4362 4.8046C62.3389 4.96804 62.274 5.13147 62.2415 5.32759ZM63.1501 2.45118C63.2799 2.28775 63.4747 2.18969 63.7343 2.18969H64.0588V3.8567H63.7018C63.5071 3.8567 63.3124 3.79132 63.1826 3.69327C63.0528 3.59521 62.9879 3.39909 62.9879 3.10491C62.9879 2.84342 63.0528 2.61461 63.1501 2.45118Z" fill="white"/>
<path id="Path_7" d="M2.72599 12.0606L1.20078 16.604H0.129883V9.34766H1.23323V13.9564H1.26568L2.79089 9.34766H3.89424V16.604H2.75844L2.72599 12.0606Z" fill="white"/>
<path id="Path_8" d="M9.37867 16.604V13.4335H8.08062V16.604H6.94482V9.34766H8.08062V12.3875H9.37867V9.34766H10.5145V16.604H9.37867Z" fill="white"/>
<path id="Path_9" d="M16.0632 16.604V13.4335H14.7652V16.604H13.6294V9.34766H14.7652V12.3875H16.0632V9.34766H17.199V16.604H16.0632Z" fill="white"/>
<path id="Shape_9" fillRule="evenodd" clipRule="evenodd" d="M23.3324 16.1781C23.6244 15.8512 23.7543 15.3609 23.7543 14.7399H23.7867V11.2424C23.7867 10.9156 23.7543 10.6541 23.6894 10.4253C23.6244 10.1638 23.5271 9.96766 23.3973 9.80423C23.2675 9.6408 23.0728 9.51005 22.8456 9.412C22.6185 9.31394 22.3264 9.28125 22.0019 9.28125C21.6774 9.28125 21.4178 9.31394 21.1906 9.412C20.9634 9.51005 20.7687 9.6408 20.6389 9.80423C20.5091 10.0004 20.4118 10.1965 20.3469 10.4253C20.282 10.6541 20.2495 10.9156 20.2495 11.2097V14.8706C20.2495 15.459 20.3793 15.9166 20.6714 16.2108C20.9634 16.5049 21.3853 16.6684 22.0019 16.6684C22.586 16.6684 23.0403 16.5049 23.3324 16.1781ZM22.5211 10.556C22.6185 10.7195 22.6509 10.9156 22.6509 11.1117V14.8379C22.6509 15.0341 22.586 15.2302 22.4887 15.3936C22.3913 15.557 22.229 15.6224 22.0019 15.6224C21.7747 15.6224 21.6125 15.557 21.5151 15.3936C21.4178 15.2629 21.3853 15.0994 21.3853 14.9033V11.2424C21.3853 11.1444 21.3853 11.0463 21.4178 10.9483L21.5151 10.6541C21.5476 10.556 21.6125 10.4906 21.7098 10.4253C21.8072 10.3599 21.9045 10.3272 22.0343 10.3272C22.2615 10.3272 22.4238 10.3926 22.5211 10.556Z" fill="white"/>
<path id="Shape_10" fillRule="evenodd" clipRule="evenodd" d="M29.4984 12.8124C29.8229 12.9105 30.0501 13.1066 30.1474 13.4008C30.2772 13.6949 30.3097 14.0218 30.3097 14.4141C30.3097 15.1658 30.1474 15.7215 29.8229 16.0811C29.4984 16.4406 29.0116 16.604 28.3302 16.604H26.8374V9.34766H28.4275C29.0765 9.34766 29.5309 9.51109 29.8229 9.83795C30.115 10.1648 30.2448 10.6551 30.2448 11.3088C30.2448 11.6357 30.1799 11.9299 30.0825 12.1914C29.9527 12.4529 29.758 12.6163 29.4984 12.747V12.8124ZM29.1739 11.3415C29.1739 11.0147 29.109 10.7532 28.9792 10.6224C28.8494 10.4917 28.6222 10.3936 28.3302 10.3936H27.9732V12.2567H28.3302C28.6222 12.2567 28.8494 12.1914 28.9792 12.0279C29.109 11.8645 29.1739 11.6357 29.1739 11.3415ZM29.0441 13.5315C29.1739 13.6949 29.2388 13.9564 29.2388 14.2833V14.7736C29.2063 14.937 29.1739 15.0678 29.109 15.1658C29.0441 15.2639 28.9467 15.362 28.8494 15.4273C28.752 15.4927 28.6222 15.5254 28.4275 15.5254H27.9732V13.27H28.3951C28.6871 13.27 28.9143 13.3681 29.0441 13.5315Z" fill="white"/>
<path id="Shape_11" fillRule="evenodd" clipRule="evenodd" d="M34.3661 15.1005H35.6966L35.9887 16.604H37.1894L35.7291 9.34766H34.4635C34.3337 9.95236 34.212 10.5571 34.0903 11.1618C33.9686 11.7665 33.8469 12.3712 33.7171 12.9758C33.5873 13.5805 33.4656 14.1852 33.3439 14.7899C33.2222 15.3946 33.1005 15.9993 32.9707 16.604H34.1065C34.1227 16.4733 34.1471 16.3507 34.1714 16.2281C34.1957 16.1056 34.2201 15.983 34.2363 15.8523C34.2688 15.5908 34.3012 15.362 34.3661 15.1005ZM34.9947 11.1696C35.0015 11.1177 35.0083 11.066 35.0151 11.0147H35.08L35.5344 14.0218H34.5284C34.6257 13.5315 34.7231 13.0085 34.788 12.5182C34.8751 12.0793 34.9363 11.6141 34.9947 11.1696Z" fill="white"/>
<path id="Path_10" d="M43.3224 9.34766V15.5581H43.7767V17.9769H42.8356V16.604H39.7852V9.34766H40.921V15.5581H42.1866V9.34766H43.3224Z" fill="white"/>
<path id="Path_11" d="M49.099 12.0606L47.5738 16.604H46.5029V9.34766H47.6063V13.9564H47.6387L49.1639 9.34766H50.2673V16.604H49.1639L49.099 12.0606Z" fill="white"/>
<path id="Shape_12" fillRule="evenodd" clipRule="evenodd" d="M53.48 14.2833L53.0581 16.604H54.1939L54.5509 14.5448C54.6158 14.1526 54.7456 13.8911 54.9078 13.7276C55.0701 13.5642 55.2648 13.4988 55.4595 13.4988H55.7516V16.604H56.8874V9.34766H55.2323C54.6158 9.34766 54.1615 9.54377 53.8045 9.90333C53.4475 10.2956 53.2853 10.8185 53.2853 11.5376C53.2853 11.9299 53.3502 12.2567 53.48 12.5509C53.6098 12.8124 53.8369 13.0412 54.1615 13.172C53.9667 13.27 53.8045 13.4335 53.7071 13.6296C53.6098 13.8257 53.5449 14.0545 53.48 14.2833ZM54.5509 10.6878C54.6807 10.4917 54.9078 10.3936 55.2648 10.3936V10.3609H55.7191V12.4202H55.2648C55.0052 12.4202 54.778 12.3548 54.6158 12.2241C54.4535 12.0933 54.3562 11.8645 54.3562 11.505C54.3562 11.1454 54.4211 10.8839 54.5509 10.6878Z" fill="white"/>
<path id="Path_12" d="M62.0468 15.0024L61.5276 13.6623L61.0733 12.3875H61.0084V16.604H59.8726V9.34766H60.9759L61.7547 11.4069L62.3389 12.9758H62.4038L62.9879 11.3742L63.7667 9.34766H64.8376V16.604H63.7018V12.4202H63.6694L63.215 13.7276L62.6958 15.0351H62.0468V15.0024Z" fill="white"/>
</g>
<g id="Group_2">
<path id="Path_13" d="M64.935 18.793C49.2934 34.221 17.9779 31.5407 6.61992 18.793H0.162109C8.72926 27.9452 21.0283 31.4099 31.3478 31.8675C32.4187 31.9002 33.4572 31.9329 34.4956 31.9002C41.1806 31.8022 48.6444 30.3313 55.1022 26.8665C58.8017 24.8726 62.1766 22.225 64.935 18.793Z" fill="#EA2227"/>
<path id="Path_14" d="M64.9351 18.793C64.6755 18.9891 64.4484 19.1198 64.2212 19.2833C47.1843 30.7562 23.4299 28.5008 13.2726 18.793H6.62012C17.9781 31.5407 49.2936 34.221 64.9351 18.793Z" fill="#25A8E0"/>
<path id="Path_15" d="M61.1708 20.3946C53.415 23.4344 46.1134 24.7419 39.753 24.7746C30.8613 24.84 23.8194 22.4212 20.055 18.793H14.4085H13.2402C23.365 28.4355 46.8274 30.7235 63.8643 19.5121C63.9941 19.4467 64.0915 19.3486 64.2213 19.2833C64.4484 19.1198 64.6756 18.9564 64.9027 18.8257C64.9027 18.8257 64.9027 18.8257 64.9352 18.8257C63.6696 19.3813 62.4364 19.9043 61.1708 20.3946Z" fill="white"/>
<path id="Shape_13" fillRule="evenodd" clipRule="evenodd" d="M14.4084 18.6953H20.055C20.0874 18.6953 20.1199 18.728 20.1199 18.728C24.014 22.5196 31.056 24.6769 39.3959 24.7096H39.7529C46.5352 24.6769 53.9341 23.1407 61.1383 20.3296C62.3715 19.8393 63.6371 19.2837 64.8702 18.728H64.9027H64.9351H64.9676C65 18.728 65 18.7607 65 18.7607V18.7934V18.8261V18.8587C62.3715 22.1274 59.0614 24.8404 55.1024 26.965C51.9871 28.632 48.5472 29.9068 44.8478 30.7566C41.4728 31.5084 37.9681 31.9333 34.4309 31.9987H33.6521C32.8732 31.9987 32.0619 31.966 31.2831 31.9333C25.6366 31.7045 20.0225 30.5605 15.025 28.6647C9.08641 26.4093 4.05645 23.108 0.0649414 18.8587V18.7607C0.0973927 18.728 0.129844 18.6953 0.162295 18.6953H6.62011H13.2402H14.4084ZM39.3959 24.775C30.6341 24.775 23.7544 22.3889 20.055 18.7934V18.7607H14.4084H13.2402H6.58766H0.129844C8.72944 27.9129 20.996 31.3776 31.3156 31.8353L31.409 31.839C32.1868 31.8704 32.9356 31.9006 33.6845 31.9006H34.4633C41.1483 31.8026 48.6121 30.3317 55.0699 26.8669C58.8018 24.873 62.1768 22.2254 64.9351 18.7934C63.6695 19.3817 62.4039 19.9047 61.1708 20.395C53.4474 23.4022 46.1134 24.7423 39.7529 24.775H39.3959Z" fill="#CDCCCB"/>
</g>
</g>
</svg>
