<svg width="65" height="32" viewBox="0 0 65 32" fill="none" xmlns="http://www.w3.org/2000/svg">
<g id="logo_w (1)">
<g id="Group">
<path id="Shape" fillRule="evenodd" clipRule="evenodd" d="M3.92661 5.19733C3.92661 5.45882 3.89416 5.65494 3.7968 5.85106C3.69945 6.01449 3.6021 6.17792 3.43984 6.30867C3.31003 6.43941 3.14778 6.53747 2.95307 6.60284C2.79081 6.66822 2.59611 6.7009 2.4014 6.73359V7.1912H1.52521V6.73359C1.2656 6.7009 1.00599 6.63553 0.811283 6.53747C0.616575 6.43941 0.454319 6.30867 0.324513 6.17792C0.194708 6.04718 0.129805 5.85106 0.0649026 5.65494C0 5.45882 0 5.2627 0 5.0339V3.13808C0 2.90928 0.0324513 2.68047 0.129805 2.48436C0.227159 2.28824 0.324513 2.15749 0.48677 2.02675C0.616575 1.896 0.778832 1.79794 0.97354 1.73257C1.1358 1.6672 1.3305 1.63451 1.52521 1.63451V1.34033H2.43385V1.63451C2.60383 1.63451 2.74907 1.68433 2.91277 1.74048C2.93658 1.74865 2.96079 1.75695 2.98552 1.76526C3.14778 1.83063 3.31003 1.92869 3.47229 2.05943C3.6021 2.19018 3.7319 2.35361 3.82926 2.51704C3.92661 2.71316 3.95906 2.90928 3.95906 3.17077V5.19733H3.92661ZM1.52521 2.35361C1.51417 2.3552 1.50336 2.35687 1.49276 2.35861V2.35361H1.52521ZM1.49276 2.35861C1.28543 2.39281 1.16194 2.45803 1.03844 2.58242C0.908637 2.68047 0.843734 2.84391 0.843734 3.07271V5.29539C0.843734 5.39345 0.876186 5.49151 0.908637 5.58957C0.941088 5.65494 1.00599 5.753 1.07089 5.78568C1.1358 5.85106 1.2007 5.88374 1.2656 5.91643C1.29805 5.93277 1.33862 5.94095 1.37918 5.94912C1.41975 5.95729 1.46031 5.96546 1.49276 5.9818V2.35861ZM2.88817 2.58242C3.01797 2.68047 3.08288 2.84391 3.08288 3.07271V5.29539C3.08288 5.39345 3.05042 5.49151 3.01797 5.55688C2.98552 5.65494 2.92062 5.72031 2.88817 5.753C2.83859 5.80294 2.77007 5.8338 2.71155 5.86016C2.69346 5.86831 2.67633 5.87603 2.66101 5.88374C2.59611 5.91643 2.49875 5.94912 2.43385 5.94912V2.35361C2.62856 2.3863 2.75836 2.45167 2.88817 2.58242Z" fill="white"/>
<path id="Shape_2" fillRule="evenodd" clipRule="evenodd" d="M8.04833 6.83162C8.27549 6.57013 8.4053 6.21058 8.4053 5.6876V2.84388C8.4053 2.58239 8.37285 2.38627 8.34039 2.19015C8.30794 1.99403 8.21059 1.8306 8.11323 1.69985C8.01588 1.56911 7.88608 1.47105 7.69137 1.40568C7.49666 1.3403 7.2695 1.30762 7.00989 1.30762C6.75028 1.30762 6.55557 1.3403 6.36086 1.40568C6.16616 1.50374 6.0039 1.60179 5.90654 1.73254C5.77674 1.86329 5.71184 2.02672 5.64693 2.22284C5.61448 2.41896 5.58203 2.61507 5.58203 2.84388V5.78566C5.58203 6.24327 5.67939 6.60282 5.90654 6.86431C6.1337 7.09311 6.49067 7.22386 6.97744 7.22386C7.46421 7.22386 7.82117 7.09311 8.04833 6.83162ZM7.39931 2.3209C7.46421 2.45164 7.49666 2.58239 7.49666 2.74582V5.72028C7.49666 5.88372 7.43176 6.04715 7.36685 6.17789C7.30195 6.30864 7.17215 6.37401 6.97744 6.37401C6.78273 6.37401 6.65292 6.30864 6.58802 6.17789C6.49067 6.07983 6.45822 5.94909 6.45822 5.78566V2.84388C6.45822 2.81449 6.46477 2.78511 6.47199 2.75276C6.48083 2.71313 6.49067 2.66906 6.49067 2.61507C6.50035 2.58581 6.50715 2.55946 6.51364 2.53428C6.5289 2.47508 6.54249 2.42238 6.58802 2.35358C6.62047 2.28821 6.68538 2.22284 6.75028 2.19015C6.81518 2.15746 6.91254 2.12478 7.00989 2.12478C7.2046 2.12478 7.3344 2.19015 7.39931 2.3209Z" fill="white"/>
<path id="Path" d="M12.0721 7.1912V4.64166H11.0336V7.1912H10.125V1.34033H11.0336V3.79181H12.0721V1.34033H12.9807V7.1912H12.0721Z" fill="white"/>
<path id="Shape_3" fillRule="evenodd" clipRule="evenodd" d="M15.1226 8.30254V7.1912H17.4266V8.30254H18.2055V6.37404H17.8485V1.34033H15.2199L15.1226 4.90315C15.1226 5.2627 15.0901 5.55688 15.0252 5.78568C14.9603 6.01449 14.863 6.21061 14.7007 6.37404L14.3438 6.43941V8.30254H15.1226ZM15.869 5.753C15.9014 5.49151 15.9339 5.19733 15.9339 4.87046L15.9988 2.19018H16.9399V6.37404H15.6743C15.7716 6.21061 15.8365 5.9818 15.869 5.753Z" fill="white"/>
<path id="Path_2" d="M23.6894 1.2749C23.9165 1.2749 24.1437 1.30759 24.3059 1.37296C24.4682 1.43833 24.6304 1.53639 24.7278 1.66714C24.8576 1.79789 24.9225 1.92863 24.9874 2.09206C25.0523 2.25549 25.0523 2.45161 25.0523 2.64773L24.1761 2.87654C24.1761 2.64773 24.1437 2.4843 24.0463 2.35355C23.9814 2.22281 23.8516 2.15744 23.6569 2.15744C23.5595 2.15744 23.4622 2.19012 23.3973 2.22281C23.3648 2.25549 23.2999 2.28818 23.2675 2.35355C23.235 2.41893 23.2026 2.4843 23.2026 2.58236C23.2026 2.64773 23.1701 2.74579 23.1701 2.81116V5.78563C23.1701 5.851 23.1701 5.91637 23.2026 5.98175C23.2026 6.04712 23.235 6.11249 23.2675 6.17786C23.2999 6.24324 23.3648 6.27592 23.4297 6.3413C23.4946 6.37398 23.5595 6.40667 23.6894 6.40667C24.0139 6.40667 24.2086 6.17786 24.2086 5.68757C24.3708 5.72025 24.5006 5.75294 24.6629 5.75294C24.8251 5.78563 24.955 5.78563 25.1172 5.81831C25.1172 6.27592 24.9874 6.60279 24.7602 6.86428C24.5331 7.12577 24.1761 7.25652 23.7218 7.25652C23.235 7.25652 22.8781 7.12577 22.6509 6.89697C22.4238 6.66816 22.2939 6.30861 22.2939 5.81831V2.87654C22.2939 2.64773 22.3264 2.45161 22.3588 2.25549C22.3913 2.05938 22.4887 1.89594 22.586 1.73251C22.6834 1.60177 22.8456 1.47102 23.0403 1.37296C23.2026 1.30759 23.4297 1.2749 23.6894 1.2749Z" fill="white"/>
<path id="Shape_4" fillRule="evenodd" clipRule="evenodd" d="M29.0434 6.83162C29.2706 6.57013 29.4004 6.21058 29.4004 5.6876V2.84388C29.4004 2.58239 29.368 2.38627 29.3355 2.19015C29.3031 1.99403 29.2057 1.8306 29.1084 1.69985C29.011 1.56911 28.8812 1.47105 28.6865 1.40568C28.4918 1.3403 28.2646 1.30762 28.005 1.30762C27.7454 1.30762 27.5507 1.3403 27.356 1.40568C27.1613 1.50374 26.999 1.60179 26.9017 1.73254C26.7719 1.86329 26.707 2.02672 26.6421 2.22284C26.6096 2.41896 26.5771 2.61507 26.5771 2.84388V5.78566C26.5771 6.24327 26.6745 6.60282 26.9017 6.86431C27.1288 7.09311 27.4858 7.22386 27.9726 7.22386C28.4593 7.22386 28.8163 7.09311 29.0434 6.83162ZM28.3944 2.3209C28.4593 2.45164 28.4918 2.58239 28.4918 2.74582H28.5242V5.6876C28.5242 5.85103 28.4593 6.01446 28.3944 6.14521C28.3295 6.27595 28.1997 6.34132 28.005 6.34132C27.8103 6.34132 27.6805 6.27595 27.6156 6.14521C27.5182 6.04715 27.4858 5.9164 27.4858 5.75297V2.81119C27.4858 2.78181 27.4923 2.75242 27.4996 2.72007C27.5084 2.68045 27.5182 2.63637 27.5182 2.58239C27.5182 2.51701 27.5507 2.41896 27.5831 2.35358C27.6156 2.28821 27.6805 2.22284 27.7454 2.19015C27.8103 2.15746 27.9077 2.12478 28.005 2.12478C28.1997 2.12478 28.3295 2.19015 28.3944 2.3209Z" fill="white"/>
<path id="Shape_5" fillRule="evenodd" clipRule="evenodd" d="M31.5103 8.30254V7.1912H33.8143V8.30254H34.5932V6.37404H34.2362V1.34033H31.6076L31.5103 4.90315C31.5103 5.2627 31.4778 5.55688 31.4129 5.78568C31.348 6.01449 31.2507 6.21061 31.0884 6.37404L30.7314 6.43941V8.30254H31.5103ZM32.2567 5.753C32.2891 5.49151 32.3216 5.19733 32.3216 4.87046L32.3865 2.19018H33.3276V6.37404H32.0619C32.1593 6.21061 32.2242 5.9818 32.2567 5.753Z" fill="white"/>
<path id="Path_3" d="M36.0859 7.1912V1.34033H38.682V2.19018H36.9946V3.79181H38.4549V4.64166H36.9946V6.34135H38.682V7.1912H36.0859Z" fill="white"/>
<path id="Shape_6" fillRule="evenodd" clipRule="evenodd" d="M41.2135 0.196118C41.181 0.130746 41.1486 0.0653728 41.1486 0H40.532C40.532 0.130746 40.5644 0.261491 40.5969 0.392236L40.5969 0.392237C40.6293 0.555669 40.6943 0.653728 40.7916 0.784474C40.889 0.91522 40.9863 1.01328 41.1486 1.07865C41.3108 1.14402 41.4731 1.17671 41.7002 1.17671C41.8949 1.17671 42.0897 1.14402 42.2195 1.07865C42.2547 1.05202 42.29 1.0278 42.3246 1.00403C42.4174 0.940262 42.5055 0.879711 42.5764 0.784474C42.6738 0.653729 42.7387 0.522984 42.8036 0.39224L42.8036 0.392237C42.8685 0.261491 42.9009 0.130746 42.9009 0H42.2195C42.2195 0.0653728 42.2195 0.130746 42.187 0.196118L42.0897 0.392237C42.0572 0.424923 41.9923 0.490296 41.9274 0.522983C41.8625 0.555669 41.7976 0.588355 41.7002 0.588355C41.6353 0.588355 41.5704 0.555669 41.5055 0.522983C41.4406 0.490296 41.3757 0.45761 41.3433 0.392237C41.2784 0.326864 41.2459 0.261491 41.2135 0.196118ZM41.0188 7.19101L42.2195 3.49745L42.2844 7.19101H43.1606V1.34014H42.2844L41.0512 5.03371H41.0188V1.34014H40.1426V7.19101H41.0188Z" fill="white"/>
<path id="Path_4" d="M46.2433 1.2749C46.4704 1.2749 46.6976 1.30759 46.8599 1.37296C47.0221 1.43833 47.1844 1.53639 47.2817 1.66714C47.4115 1.79789 47.4764 1.92863 47.5413 2.09206C47.6062 2.25549 47.6062 2.45161 47.6062 2.64773L46.7301 2.87654C46.7301 2.64773 46.6976 2.4843 46.6003 2.35355C46.5353 2.22281 46.4055 2.15744 46.2108 2.15744C46.1135 2.15744 46.0161 2.19012 45.9512 2.22281C45.8863 2.25549 45.8214 2.32087 45.789 2.38624C45.7565 2.45161 45.7241 2.51699 45.7241 2.61505C45.7241 2.68042 45.6916 2.77848 45.6916 2.84385V5.81831C45.6916 5.88369 45.6916 5.94906 45.7241 6.01443C45.7241 6.07981 45.7565 6.14518 45.789 6.21055C45.8214 6.27592 45.8863 6.30861 45.9512 6.37398C46.0161 6.40667 46.1135 6.43936 46.2108 6.43936C46.5353 6.43936 46.7301 6.21055 46.7301 5.72025C46.8923 5.75294 47.0221 5.78563 47.1844 5.78563C47.3466 5.81831 47.4764 5.81831 47.6387 5.851C47.6387 6.30861 47.5089 6.63547 47.2817 6.89697C47.0546 7.15846 46.6976 7.2892 46.2433 7.2892C45.7565 7.2892 45.3996 7.15846 45.1724 6.92965C44.9452 6.70085 44.8154 6.3413 44.8154 5.851V2.87654C44.8154 2.64773 44.8479 2.45161 44.8803 2.25549C44.9128 2.05938 45.0101 1.89594 45.1075 1.73251C45.2048 1.60177 45.3671 1.47102 45.5618 1.37296C45.7565 1.30759 45.9837 1.2749 46.2433 1.2749Z" fill="white"/>
<path id="Path_5" d="M50.6241 2.19018V7.1912H49.7155V2.19018H48.7744V1.34033H51.5652V2.19018H50.6241Z" fill="white"/>
<path id="Shape_7" fillRule="evenodd" clipRule="evenodd" d="M55.0695 4.11868C55.3291 4.21674 55.4914 4.34748 55.5887 4.60897C55.6861 4.83778 55.7185 5.09927 55.7185 5.42613C55.7185 6.04718 55.5887 6.4721 55.3291 6.76628C55.0695 7.06045 54.6801 7.1912 54.1284 7.1912H52.9277V1.34033H54.1933C54.7126 1.34033 55.0695 1.47108 55.3291 1.73257C55.5563 1.99406 55.6861 2.3863 55.6861 2.90928C55.6861 3.17077 55.6536 3.39958 55.5563 3.62838C55.4589 3.8245 55.2967 3.98793 55.0695 4.08599V4.11868ZM54.8099 2.94197C54.8099 2.68047 54.745 2.48436 54.6477 2.35361C54.5503 2.22287 54.3556 2.19018 54.1284 2.19018H53.8364V3.69375H54.1284C54.3556 3.69375 54.5503 3.62838 54.6477 3.49764C54.745 3.36689 54.8099 3.17077 54.8099 2.94197ZM54.7126 4.70703C54.8099 4.83778 54.8748 5.06658 54.8748 5.32807C54.8748 5.39345 54.8667 5.45882 54.8586 5.52419C54.8505 5.58957 54.8424 5.65494 54.8424 5.72031C54.8099 5.85106 54.7775 5.94912 54.745 6.04718C54.7126 6.14524 54.6477 6.21061 54.5503 6.27598C54.4529 6.30867 54.3231 6.34135 54.1933 6.34135H53.8364V4.51091H54.1933C54.4205 4.51091 54.6152 4.57629 54.7126 4.70703Z" fill="white"/>
<path id="Path_6" d="M59.5156 3.49764L58.2824 7.1912H57.4062V1.34033H58.2824V5.0339H58.3149L59.548 1.34033H60.4242V7.1912H59.548L59.5156 3.49764Z" fill="white"/>
<path id="Shape_8" fillRule="evenodd" clipRule="evenodd" d="M62.2415 5.32807L61.917 7.1912V7.22389H62.8256L63.1177 5.55688C63.1826 5.23002 63.2799 5.0339 63.4098 4.90315C63.5396 4.77241 63.6694 4.70703 63.8316 4.70703H64.0588V7.1912H64.9674V1.34033H63.6369C63.1501 1.34033 62.7932 1.50376 62.5011 1.79794C62.2091 2.09212 62.0792 2.51704 62.0792 3.1054C62.0792 3.43226 62.1442 3.69375 62.2415 3.92256C62.3389 4.15136 62.5336 4.34748 62.7932 4.44554C62.6309 4.51091 62.5336 4.64166 62.4362 4.80509C62.3389 4.96852 62.274 5.13196 62.2415 5.32807ZM63.1501 2.45167C63.2799 2.28824 63.4747 2.19018 63.7343 2.19018H64.0588V3.85719H63.7018C63.5071 3.85719 63.3124 3.79181 63.1826 3.69375C63.0528 3.59569 62.9879 3.39958 62.9879 3.1054C62.9879 2.84391 63.0528 2.6151 63.1501 2.45167Z" fill="white"/>
<path id="Path_7" d="M2.72599 12.0611L1.20078 16.6045H0.129883V9.34814H1.23323V13.9569H1.26568L2.79089 9.34814H3.89424V16.6045H2.75844L2.72599 12.0611Z" fill="white"/>
<path id="Path_8" d="M9.37819 16.6045V13.4339H8.08013V16.6045H6.94434V9.34814H8.08013V12.388H9.37819V9.34814H10.514V16.6045H9.37819Z" fill="white"/>
<path id="Path_9" d="M16.0637 16.6045V13.4339H14.7657V16.6045H13.6299V9.34814H14.7657V12.388H16.0637V9.34814H17.1995V16.6045H16.0637Z" fill="white"/>
<path id="Shape_9" fillRule="evenodd" clipRule="evenodd" d="M23.3329 16.1795C23.6249 15.8527 23.7547 15.3624 23.7547 14.7413H23.7872V11.2439C23.7872 10.917 23.7547 10.6555 23.6898 10.4267C23.6249 10.1652 23.5276 9.96913 23.3978 9.8057C23.268 9.64227 23.0733 9.51152 22.8461 9.41346C22.6189 9.3154 22.3269 9.28271 22.0024 9.28271C21.6779 9.28271 21.4182 9.3154 21.1911 9.41346C20.9639 9.51152 20.7692 9.64227 20.6394 9.8057C20.5096 10.0018 20.4123 10.1979 20.3474 10.4267C20.2825 10.6555 20.25 10.917 20.25 11.2112V14.8721C20.25 15.4604 20.3798 15.9181 20.6719 16.2122C20.9639 16.5064 21.3858 16.6698 22.0024 16.6698C22.5865 16.6698 23.0408 16.5064 23.3329 16.1795ZM22.5216 10.5575C22.6189 10.7209 22.6514 10.917 22.6514 11.1132V14.8394C22.6514 15.0355 22.5865 15.2316 22.4891 15.3951C22.3918 15.5585 22.2295 15.6239 22.0024 15.6239C21.7752 15.6239 21.613 15.5585 21.5156 15.3951C21.4182 15.2643 21.3858 15.1009 21.3858 14.9048V11.2439C21.3858 11.1458 21.3858 11.0478 21.4182 10.9497L21.5156 10.6555C21.5481 10.5575 21.613 10.4921 21.7103 10.4267C21.8077 10.3614 21.905 10.3287 22.0348 10.3287C22.262 10.3287 22.4242 10.3941 22.5216 10.5575Z" fill="white"/>
<path id="Shape_10" fillRule="evenodd" clipRule="evenodd" d="M29.4979 12.8129C29.8224 12.911 30.0496 13.1071 30.1469 13.4013C30.2768 13.6954 30.3092 14.0223 30.3092 14.4145C30.3092 15.1663 30.1469 15.722 29.8224 16.0815C29.4979 16.4411 29.0112 16.6045 28.3297 16.6045H26.8369V9.34814H28.427C29.0761 9.34814 29.5304 9.51158 29.8224 9.83844C30.1145 10.1653 30.2443 10.6556 30.2443 11.3093C30.2443 11.6362 30.1794 11.9304 30.082 12.1919C29.9522 12.4534 29.7575 12.6168 29.4979 12.7475V12.8129ZM29.1734 11.342C29.1734 11.0152 29.1085 10.7537 28.9787 10.6229C28.8489 10.4922 28.6217 10.3941 28.3297 10.3941H27.9727V12.2572H28.3297C28.6217 12.2572 28.8489 12.1919 28.9787 12.0284C29.1085 11.865 29.1734 11.6362 29.1734 11.342ZM29.0436 13.532C29.1734 13.6954 29.2383 13.9569 29.2383 14.2838V14.7741C29.2059 14.9375 29.1734 15.0683 29.1085 15.1663C29.0436 15.2644 28.9462 15.3624 28.8489 15.4278C28.7515 15.4932 28.6217 15.5259 28.427 15.5259H27.9727V13.2705H28.3946C28.6866 13.2705 28.9138 13.3686 29.0436 13.532Z" fill="white"/>
<path id="Shape_11" fillRule="evenodd" clipRule="evenodd" d="M34.3661 15.101H35.6966L35.9887 16.6045H37.1894L35.7291 9.34814H34.4635C34.3337 9.95284 34.212 10.5575 34.0903 11.1622C33.9686 11.7669 33.8469 12.3716 33.7171 12.9763C33.5873 13.581 33.4656 14.1857 33.3439 14.7904C33.2222 15.3951 33.1005 15.9998 32.9707 16.6045H34.1065C34.1227 16.4738 34.1471 16.3512 34.1714 16.2286C34.1957 16.1061 34.2201 15.9835 34.2363 15.8527C34.2688 15.5912 34.3012 15.3624 34.3661 15.101ZM34.9947 11.1701C35.0015 11.1182 35.0083 11.0665 35.0151 11.0152H35.08L35.5344 14.0223H34.5284C34.6257 13.532 34.7231 13.009 34.788 12.5187C34.8751 12.0798 34.9363 11.6146 34.9947 11.1701Z" fill="white"/>
<path id="Path_10" d="M43.3224 9.34814V15.5586H43.7767V17.9774H42.8356V16.6045H39.7852V9.34814H40.921V15.5586H42.1866V9.34814H43.3224Z" fill="white"/>
<path id="Path_11" d="M49.099 12.0611L47.5738 16.6045H46.5029V9.34814H47.6063V13.9569H47.6387L49.1639 9.34814H50.2673V16.6045H49.1639L49.099 12.0611Z" fill="white"/>
<path id="Shape_12" fillRule="evenodd" clipRule="evenodd" d="M53.4795 14.2838L53.0576 16.6045H54.1934L54.5504 14.5453C54.6153 14.153 54.7451 13.8916 54.9073 13.7281C55.0696 13.5647 55.2643 13.4993 55.459 13.4993H55.7511V16.6045H56.8869V9.34814H55.2319C54.6153 9.34814 54.161 9.54426 53.804 9.90381C53.447 10.2961 53.2848 10.819 53.2848 11.5381C53.2848 11.9304 53.3497 12.2572 53.4795 12.5514C53.6093 12.8129 53.8364 13.0417 54.161 13.1725C53.9663 13.2705 53.804 13.4339 53.7066 13.6301C53.6093 13.8262 53.5444 14.055 53.4795 14.2838ZM54.5504 10.6883C54.6802 10.4922 54.9073 10.3941 55.2643 10.3941V10.3614H55.7186V12.4207H55.2643C55.0047 12.4207 54.7775 12.3553 54.6153 12.2245C54.453 12.0938 54.3557 11.865 54.3557 11.5054C54.3557 11.1459 54.4206 10.8844 54.5504 10.6883Z" fill="white"/>
<path id="Path_12" d="M62.0473 15.0029L61.5281 13.6628L61.0737 12.388H61.0088V16.6045H59.873V9.34814H60.9764L61.7552 11.4074L62.3393 12.9763H62.4043L62.9884 11.3747L63.7672 9.34814H64.8381V16.6045H63.7023V12.4207H63.6699L63.2155 13.7281L62.6963 15.0356H62.0473V15.0029Z" fill="white"/>
</g>
<g id="Group_2">
<path id="Path_13" d="M64.935 18.7949C49.2934 34.2229 17.9779 31.5426 6.61992 18.7949H0.162109C8.72926 27.9471 21.0283 31.4119 31.3478 31.8695C32.4187 31.9022 33.4572 31.9349 34.4956 31.9022C41.1806 31.8041 48.6444 30.3332 55.1022 26.8685C58.8017 24.8746 62.1766 22.227 64.935 18.7949Z" fill="#EA2227"/>
<path id="Path_14" d="M64.9342 18.7949C64.6746 18.991 64.4474 19.1218 64.2202 19.2852C47.1833 30.7582 23.4289 28.5028 13.2717 18.7949H6.61914C17.9771 31.5426 49.2926 34.2229 64.9342 18.7949Z" fill="#25A8E0"/>
<path id="Path_15" d="M61.1699 20.3966C53.414 23.4364 46.1124 24.7438 39.752 24.7765C30.8603 24.8419 23.8184 22.4231 20.054 18.7949H14.4075H13.2393C23.3641 28.4374 46.8264 30.7255 63.8633 19.514C63.9931 19.4487 64.0905 19.3506 64.2203 19.2852C64.4474 19.1218 64.6746 18.9584 64.9018 18.8276C64.9018 18.8276 64.9018 18.8276 64.9342 18.8276C63.6686 19.3833 62.4355 19.9063 61.1699 20.3966Z" fill="white"/>
<path id="Shape_13" fillRule="evenodd" clipRule="evenodd" d="M14.4079 18.6968H20.0545C20.0869 18.6968 20.1194 18.7295 20.1194 18.7295C24.0135 22.5211 31.0555 24.6784 39.3955 24.7111H39.7524C46.5347 24.6784 53.9337 23.1421 61.1378 20.3311C62.371 19.8408 63.6366 19.2851 64.8697 18.7295H64.9022H64.9346H64.9671C64.9995 18.7295 64.9995 18.7622 64.9995 18.7622V18.7948V18.8275V18.8602C62.371 22.1289 59.061 24.8418 55.1019 26.9664C51.9866 28.6334 48.5467 29.9082 44.8473 30.7581C41.4723 31.5099 37.9676 31.9348 34.4304 32.0001H33.6516C32.8727 32.0001 32.0615 31.9675 31.2826 31.9348C25.6361 31.706 20.022 30.5619 15.0245 28.6661C9.08592 26.4108 4.05597 23.1094 0.0644531 18.8602V18.7622C0.0969044 18.7295 0.129356 18.6968 0.161807 18.6968H6.61962H13.2397H14.4079ZM39.3955 24.7765C30.6336 24.7765 23.7539 22.3903 20.0545 18.7948V18.7622H14.4079H13.2397H6.58717H0.129356C8.72896 27.9143 20.9956 31.3791 31.3151 31.8367L31.4086 31.8405C32.1863 31.8719 32.9352 31.9021 33.684 31.9021H34.4629C41.1478 31.804 48.6116 30.3331 55.0694 26.8684C58.8013 24.8745 62.1763 22.2269 64.9346 18.7948C63.669 19.3832 62.4034 19.9062 61.1703 20.3965C53.4469 23.4036 46.1129 24.7438 39.7524 24.7765H39.3955Z" fill="#CDCCCB"/>
</g>
</g>
</svg>
