<svg width="160" height="15" viewBox="0 0 160 15" fill="none" xmlns="http://www.w3.org/2000/svg">
<path d="M9.14915 15L4.36222 8.64347H3.0696V15H0.434659V0.454545H3.0696V6.43466H3.73011L8.90057 0.454545H12.1463L6.40057 7.08807L12.3949 15H9.14915ZM16.0526 15H13.2401L18.3608 0.454545H21.6136L26.7415 15H23.929L20.044 3.4375H19.9304L16.0526 15ZM16.1449 9.29688H23.8153V11.4134H16.1449V9.29688ZM28.6573 15V0.454545H38.011V2.66335H31.2923V6.07244H34.0977C35.2103 6.07244 36.1644 6.25473 36.9599 6.61932C37.7601 6.97917 38.3732 7.48816 38.7994 8.14631C39.2255 8.80445 39.4386 9.5786 39.4386 10.4688C39.4386 11.3636 39.2255 12.152 38.7994 12.8338C38.3732 13.5109 37.7601 14.0412 36.9599 14.4247C36.1644 14.8082 35.2103 15 34.0977 15H28.6573ZM31.2923 12.8409H34.0977C34.6848 12.8409 35.1819 12.7296 35.5891 12.5071C35.9963 12.2846 36.3041 11.991 36.5124 11.6264C36.7255 11.2618 36.832 10.8665 36.832 10.4403C36.832 9.82481 36.5953 9.30161 36.1218 8.87074C35.6531 8.43513 34.9783 8.21733 34.0977 8.21733H31.2923V12.8409ZM43.6112 15H40.7987L45.9194 0.454545H49.1722L54.3001 15H51.4876L47.6026 3.4375H47.489L43.6112 15ZM43.7035 9.29688H51.3739V11.4134H43.7035V9.29688ZM61.1768 15V0.454545H66.6314C67.7488 0.454545 68.6863 0.662878 69.4439 1.07955C70.2062 1.49621 70.7815 2.06913 71.1697 2.7983C71.5627 3.52273 71.7592 4.34659 71.7592 5.26989C71.7592 6.20265 71.5627 7.03125 71.1697 7.75568C70.7768 8.48011 70.1967 9.05066 69.4297 9.46733C68.6626 9.87926 67.718 10.0852 66.5959 10.0852H62.9808V7.91903H66.2408C66.8942 7.91903 67.4292 7.8054 67.8459 7.57812C68.2625 7.35085 68.5703 7.03835 68.7692 6.64062C68.9728 6.2429 69.0746 5.78598 69.0746 5.26989C69.0746 4.75379 68.9728 4.29924 68.7692 3.90625C68.5703 3.51326 68.2602 3.20786 67.8388 2.99006C67.4221 2.76752 66.8847 2.65625 66.2266 2.65625H63.8118V15H61.1768ZM74.0479 15V0.454545H83.5082V2.66335H76.6829V6.61222H83.0181V8.82102H76.6829V12.7912H83.565V15H74.0479ZM94.9109 15L90.1239 8.64347H88.8313V15H86.1964V0.454545H88.8313V6.43466H89.4918L94.6623 0.454545H97.908L92.1623 7.08807L98.1566 15H94.9109ZM99.0018 15V12.8125L99.4137 12.7912C99.9724 12.758 100.415 12.5568 100.742 12.1875C101.073 11.8182 101.317 11.224 101.473 10.4048C101.634 9.5857 101.741 8.48722 101.793 7.10938L102.034 0.454545H111.566V15H108.988V2.62074H104.492L104.265 7.92614C104.198 9.51705 104.023 10.8357 103.739 11.8821C103.46 12.9285 103 13.7098 102.361 14.2259C101.727 14.742 100.844 15 99.712 15H99.0018ZM116.306 15H113.494L118.615 0.454545H121.868L126.995 15H124.183L120.298 3.4375H120.184L116.306 15ZM116.399 9.29688H124.069V11.4134H116.399V9.29688ZM128.911 0.454545H132.136L136.454 10.9943H136.624L140.942 0.454545H144.167V15H141.638V5.0071H141.504L137.484 14.9574H135.594L131.575 4.9858H131.44V15H128.911V0.454545ZM148.904 15H146.092L151.212 0.454545H154.465L159.593 15H156.781L152.896 3.4375H152.782L148.904 15ZM148.996 9.29688H156.667V11.4134H148.996V9.29688Z" fill="#F2F2F2"/>
</svg>
