<svg width="16" height="16" viewBox="0 0 16 16" fill="none" xmlns="http://www.w3.org/2000/svg">
<circle cx="8" cy="8" r="8" fill="#005FF9"/>
<path fillRule="evenodd" clipRule="evenodd" d="M3.26354 6.40847C3.94728 4.37423 5.85401 3.00409 8.00009 3.00488C10.7576 3.00764 12.9923 5.24236 12.9951 7.99988C13.0004 8.34413 12.9653 8.68781 12.8906 9.02388V9.02938C12.8906 9.03038 12.8546 9.17638 12.8346 9.23988C12.7234 9.61619 12.4973 9.94834 12.1881 10.1899C11.8963 10.4108 11.5406 10.5309 11.1746 10.5319C11.1296 10.5319 11.0841 10.5299 11.0401 10.5264C10.529 10.4891 10.0656 10.2125 9.79009 9.78038C8.93783 10.6372 7.5987 10.772 6.59278 10.1022C5.58687 9.43237 5.19484 8.14483 5.65678 7.02808C6.11873 5.91132 7.30575 5.27695 8.49091 5.51346C9.67606 5.74997 10.5287 6.79136 10.5266 7.99988V8.81188C10.5123 8.98258 10.567 9.15189 10.6786 9.28188C10.7901 9.41187 10.9492 9.49166 11.1201 9.50338C11.5023 9.51407 11.8301 9.23277 11.8776 8.85338C12.2866 7.00064 11.3292 5.1171 9.5914 4.35561C7.85356 3.59412 5.81981 4.167 4.73494 5.7236C3.65007 7.28021 3.81657 9.38653 5.13252 10.7534C6.44847 12.1202 8.54696 12.3664 10.1436 11.3414L10.1551 11.3339L10.8281 12.1159L10.8136 12.1259C9.04087 13.3355 6.69363 13.2775 4.98276 11.9819C3.27188 10.6864 2.5798 8.44272 3.26354 6.40847ZM8.00342 9.49988C8.83152 9.49942 9.50259 8.82799 9.50259 7.99988C9.50038 7.1714 8.82858 6.50071 8.00009 6.49988C7.17199 6.50126 6.50167 7.17345 6.50259 8.00155C6.50351 8.82965 7.17532 9.50034 8.00342 9.49988Z" fill="#FF9E00"/>
</svg>
