<svg width="36" height="36" viewBox="0 0 36 36" fill="none" xmlns="http://www.w3.org/2000/svg">
<path fillRule="evenodd" clipRule="evenodd" d="M18 0C27.9404 0 36 8.05957 36 18C36 27.9404 27.9404 36 18 36C8.05957 36 0 27.9404 0 18C0 8.05957 8.05957 0 18 0V0Z" fill="#EE8208"/>
<path fillRule="evenodd" clipRule="evenodd" d="M18.0881 7.47656C15.0764 7.47656 12.633 9.91699 12.633 12.9316C12.633 15.9434 15.0735 18.3867 18.0881 18.3867C21.0998 18.3867 23.5432 15.9434 23.5432 12.9316C23.5432 9.91992 21.1028 7.47656 18.0881 7.47656ZM18.0881 15.1846C16.843 15.1846 15.8352 14.1738 15.8352 12.9287C15.8352 11.6836 16.8459 10.6758 18.0881 10.6758C19.3332 10.6758 20.344 11.6836 20.344 12.9287C20.344 14.1768 19.3332 15.1846 18.0881 15.1846ZM23.5754 21.1904C23.5051 21.2461 22.1955 22.2803 20.0129 22.7256L23.3059 25.9893C23.886 26.5693 23.8889 27.5068 23.3088 28.0869C22.7287 28.667 21.7912 28.6699 21.2112 28.0898L18.0119 24.9727L15.1057 28.0693C14.8157 28.3711 14.4289 28.5234 14.0393 28.5234C13.6701 28.5234 13.2981 28.3857 13.011 28.1074C12.4221 27.5391 12.4045 26.5986 12.9729 26.0098L16.0959 22.7432C13.8518 22.3066 12.4895 21.2461 12.4192 21.1904C11.7805 20.6777 11.678 19.7432 12.1907 19.1045C12.7034 18.4658 13.6379 18.3633 14.2766 18.876C14.2912 18.8877 15.7151 19.957 18.0119 19.96C20.3088 19.957 21.7063 18.8877 21.718 18.876C22.3567 18.3633 23.2912 18.4658 23.8039 19.1045C24.3166 19.7461 24.2141 20.6777 23.5754 21.1904Z" fill="white"/>
</svg>
