<svg width="38" height="38" viewBox="0 0 38 38" fill="none" xmlns="http://www.w3.org/2000/svg">
<path fillRule="evenodd" clipRule="evenodd" d="M19 1C28.9404 1 37 9.05957 37 19C37 28.9404 28.9404 37 19 37C9.05957 37 1 28.9404 1 19C1 9.05957 9.05957 1 19 1V1Z" fill="white" fill-opacity="0.01" stroke="#474747"/>
<path fillRule="evenodd" clipRule="evenodd" d="M18 14C18 13.4477 18.4477 13 19 13C19.5523 13 20 13.4477 20 14C20 14.5523 19.5523 15 19 15C18.4477 15 18 14.5523 18 14ZM18 19C18 18.4477 18.4477 18 19 18C19.5523 18 20 18.4477 20 19C20 19.5523 19.5523 20 19 20C18.4477 20 18 19.5523 18 19ZM19 23C18.4477 23 18 23.4477 18 24C18 24.5523 18.4477 25 19 25C19.5523 25 20 24.5523 20 24C20 23.4477 19.5523 23 19 23Z" fill="#F2F2F2"/>
</svg>
