<svg width="24" height="24" viewBox="0 0 24 24" fill="none" xmlns="http://www.w3.org/2000/svg">
<g id="Group 4 Copy 6">
<g id="&#244;&#128;&#129;&#156;">
<path id="Shape" fillRule="evenodd" clipRule="evenodd" d="M15.4721 20.2941C14.3868 20.7647 13.2294 21 12 21C10.7706 21 9.61324 20.7647 8.52794 20.2941C7.44265 19.8235 6.48529 19.1735 5.65588 18.3441C4.82647 17.5147 4.17647 16.5574 3.70588 15.4721C3.23529 14.3868 3 13.2294 3 12C3 10.7706 3.23529 9.61324 3.70588 8.52794C4.17647 7.44265 4.825 6.48529 5.65147 5.65588C6.47794 4.82647 7.43382 4.17647 8.51912 3.70588C9.60441 3.23529 10.7618 3 11.9912 3C13.2206 3 14.3794 3.23529 15.4676 3.70588C16.5559 4.17647 17.5147 4.82647 18.3441 5.65588C19.1735 6.48529 19.8235 7.44265 20.2941 8.52794C20.7647 9.61324 21 10.7706 21 12C21 13.2294 20.7647 14.3868 20.2941 15.4721C19.8235 16.5574 19.1735 17.5147 18.3441 18.3441C17.5147 19.1735 16.5574 19.8235 15.4721 20.2941ZM9.07941 18.9176C9.98529 19.3059 10.9588 19.5 12 19.5C13.0412 19.5 14.0162 19.3059 14.925 18.9176C15.8338 18.5294 16.6309 17.9926 17.3162 17.3074C18.0015 16.6221 18.5368 15.8265 18.9221 14.9206C19.3074 14.0147 19.5 13.0412 19.5 12C19.5 10.9588 19.3059 9.98529 18.9176 9.07941C18.5294 8.17353 17.9912 7.37647 17.3029 6.68824C16.6147 6 15.8176 5.46324 14.9118 5.07794C14.0059 4.69265 13.0324 4.5 11.9912 4.5C10.95 4.5 9.97647 4.69265 9.07059 5.07794C8.16471 5.46324 7.37059 6 6.68824 6.68824C6.00588 7.37647 5.47206 8.17353 5.08676 9.07941C4.70147 9.98529 4.50882 10.9588 4.50882 12C4.50882 13.0412 4.70147 14.0147 5.08676 14.9206C5.47206 15.8265 6.00735 16.6221 6.69265 17.3074C7.37794 17.9926 8.17353 18.5294 9.07941 18.9176ZM11.8235 13.8265C12.0412 13.8265 12.2132 13.7647 12.3397 13.6412C12.4662 13.5176 12.5294 13.3706 12.5294 13.2V13.1426V13.0941C12.5294 12.8471 12.6029 12.6338 12.75 12.4544C12.8971 12.275 13.1265 12.0824 13.4382 11.8765C13.8618 11.5941 14.2118 11.3 14.4882 10.9941C14.7647 10.6882 14.9029 10.2706 14.9029 9.74118C14.9029 9.25294 14.7721 8.84118 14.5103 8.50588C14.2485 8.17059 13.9059 7.91618 13.4824 7.74265C13.0588 7.56912 12.5971 7.48235 12.0971 7.48235C11.3382 7.48235 10.7191 7.63676 10.2397 7.94559C9.76029 8.25441 9.45882 8.61176 9.33529 9.01765C9.31176 9.08824 9.29412 9.15882 9.28235 9.22941C9.27059 9.3 9.26471 9.37353 9.26471 9.45C9.26471 9.65 9.32941 9.80147 9.45882 9.90441C9.58824 10.0074 9.72647 10.0588 9.87353 10.0588C10.0206 10.0588 10.1456 10.0265 10.2485 9.96176C10.3515 9.89706 10.4412 9.81176 10.5176 9.70588L10.6765 9.49412C10.7824 9.32353 10.9029 9.17794 11.0382 9.05735C11.1735 8.93676 11.325 8.84412 11.4926 8.77941C11.6603 8.71471 11.8412 8.68235 12.0353 8.68235C12.4412 8.68235 12.7647 8.78676 13.0059 8.99559C13.2471 9.20441 13.3676 9.47647 13.3676 9.81176C13.3676 10.1118 13.2735 10.3574 13.0853 10.5485C12.8971 10.7397 12.6088 10.9706 12.2206 11.2412C11.9029 11.4588 11.6397 11.7 11.4309 11.9647C11.2221 12.2294 11.1176 12.5794 11.1176 13.0147V13.0721V13.1294C11.1176 13.5941 11.3529 13.8265 11.8235 13.8265ZM12.4676 16.1912C12.2794 16.3676 12.0559 16.4559 11.7971 16.4559C11.5441 16.4559 11.3235 16.3662 11.1353 16.1868C10.9471 16.0074 10.8529 15.7912 10.8529 15.5382C10.8529 15.2853 10.9456 15.0691 11.1309 14.8897C11.3162 14.7103 11.5382 14.6206 11.7971 14.6206C12.0559 14.6206 12.2794 14.7088 12.4676 14.8853C12.6559 15.0618 12.75 15.2794 12.75 15.5382C12.75 15.7971 12.6559 16.0147 12.4676 16.1912Z" fill="#808080"/>
</g>
</g>
</svg>
