<?xml version="1.0" encoding="UTF-8"?>
<svg width="24px" height="24px" viewBox="0 0 24 24" version="1.1" xmlns="http://www.w3.org/2000/svg" xmlns:xlink="http://www.w3.org/1999/xlink">
    <title>Сайты@1,5x</title>
    <g id="UX/UI" stroke="none" stroke-width="1" fill="none" fillRule="evenodd">
        <g id="main:page-copy-39" transform="translate(-38.000000, -354.000000)">
            <g id="Group-28" transform="translate(32.000000, 72.000000)">
                <g id="Сайты" transform="translate(6.000000, 282.000000)">
                    <rect id="Rectangle" opacity="0" x="0" y="0" width="24" height="24"></rect>
                    <g id="􀤆" transform="translate(3.000000, 3.000000)" fill="#F2F2F2" fillRule="nonzero">
                        <path d="M1.42058824,5.25882353 C2.15,6.02941176 2.96617647,6.68823529 3.86911765,7.23529412 C4.77205882,7.78235294 5.73676471,8.19852941 6.76323529,8.48382353 C7.78970588,8.76911765 8.84705882,8.91176471 9.93529412,8.91176471 C11.2235294,8.90588235 12.4661765,8.69411765 13.6632353,8.27647059 C14.8602941,7.85882353 15.9558824,7.25882353 16.95,6.47647059 L16.4470588,5.48823529 C15.5352941,6.24705882 14.5235294,6.82794118 13.4117647,7.23088235 C12.3,7.63382353 11.1411765,7.83823529 9.93529412,7.84411765 C8.37058824,7.85 6.88970588,7.52941176 5.49264706,6.88235294 C4.09558824,6.23529412 2.90294118,5.32941176 1.91470588,4.16470588 L1.42058824,5.25882353 Z M0.476470588,10.2970588 C1.62352941,11.2735294 2.875,12.0514706 4.23088235,12.6308824 C5.58676471,13.2102941 6.98970588,13.5823529 8.43970588,13.7470588 C9.88970588,13.9117647 11.3352941,13.8647059 12.7764706,13.6058824 C14.2176471,13.3470588 15.6,12.8705882 16.9235294,12.1764706 L16.8970588,10.9676471 C15.6147059,11.7088235 14.2617647,12.2220588 12.8382353,12.5073529 C11.4147059,12.7926471 9.98676471,12.8529412 8.55441176,12.6882353 C7.12205882,12.5235294 5.73823529,12.1397059 4.40294118,11.5367647 C3.06764706,10.9338235 1.84705882,10.1205882 0.741176471,9.09705882 L0.476470588,10.2970588 Z M4.85294118,16.3588235 L6.11470588,16.65 C5.82058824,15.9382353 5.59411765,15.2088235 5.43529412,14.4617647 C5.27647059,13.7147059 5.19117647,12.9558824 5.17941176,12.1852941 C5.09705882,10.7205882 5.24264706,9.29705882 5.61617647,7.91470588 C5.98970588,6.53235294 6.56470588,5.23970588 7.34117647,4.03676471 C8.11764706,2.83382353 9.06764706,1.77352941 10.1911765,0.855882353 L9.06176471,0.414705882 C7.95,1.40294118 7.01176471,2.525 6.24705882,3.78088235 C5.48235294,5.03676471 4.91617647,6.37794118 4.54852941,7.80441176 C4.18088235,9.23088235 4.03529412,10.6970588 4.11176471,12.2029412 C4.12352941,12.9088235 4.19117647,13.6088235 4.31470588,14.3029412 C4.43823529,14.9970588 4.61764706,15.6823529 4.85294118,16.3588235 Z M10.6676471,17.2323529 L11.6647059,16.7911765 C10.8411765,15.6264706 10.2102941,14.3661765 9.77205882,13.0102941 C9.33382353,11.6544118 9.11470588,10.2558824 9.11470588,8.81470588 C9.11470588,7.44411765 9.30882353,6.11764706 9.69705882,4.83529412 C10.0852941,3.55294118 10.6529412,2.35588235 11.4,1.24411765 L10.3588235,0.873529412 C9.60588235,2.05588235 9.03235294,3.32058824 8.63823529,4.66764706 C8.24411765,6.01470588 8.04705882,7.39705882 8.04705882,8.81470588 C8.04705882,10.3382353 8.27058824,11.8132353 8.71764706,13.2397059 C9.16470588,14.6661765 9.81470588,15.9970588 10.6676471,17.2323529 Z M15.8647059,13.95 L16.5794118,13.1382353 C15.5911765,12.5735294 14.7367647,11.8647059 14.0161765,11.0117647 C13.2955882,10.1588235 12.7367647,9.20882353 12.3397059,8.16176471 C11.9426471,7.11470588 11.7352941,6.01470588 11.7176471,4.86176471 C11.7117647,4.24411765 11.7617647,3.63235294 11.8676471,3.02647059 C11.9735294,2.42058824 12.1382353,1.83529412 12.3617647,1.27058824 L11.3294118,0.979411765 C11.0941176,1.59705882 10.9205882,2.23088235 10.8088235,2.88088235 C10.6970588,3.53088235 10.6441176,4.19411765 10.65,4.87058824 C10.6676471,6.12352941 10.8882353,7.32205882 11.3117647,8.46617647 C11.7352941,9.61029412 12.3352941,10.6514706 13.1117647,11.5897059 C13.8882353,12.5279412 14.8058824,13.3147059 15.8647059,13.95 Z M5.17058824,8.80588235 C5.54705882,8.80588235 5.86911765,8.67058824 6.13676471,8.4 C6.40441176,8.12941176 6.53823529,7.80294118 6.53823529,7.42058824 C6.53823529,7.03823529 6.40441176,6.71323529 6.13676471,6.44558824 C5.86911765,6.17794118 5.54705882,6.04411765 5.17058824,6.04411765 C4.78235294,6.04411765 4.45441176,6.17794118 4.18676471,6.44558824 C3.91911765,6.71323529 3.78529412,7.03823529 3.78529412,7.42058824 C3.78529412,7.80294118 3.91911765,8.12941176 4.18676471,8.4 C4.45441176,8.67058824 4.78235294,8.80588235 5.17058824,8.80588235 Z M11.9294118,9.53823529 C12.3,9.53823529 12.6176471,9.40441176 12.8823529,9.13676471 C13.1470588,8.86911765 13.2794118,8.54705882 13.2794118,8.17058824 C13.2794118,7.8 13.1470588,7.48235294 12.8823529,7.21764706 C12.6176471,6.95294118 12.3,6.82058824 11.9294118,6.82058824 C11.5470588,6.82058824 11.2235294,6.95294118 10.9588235,7.21764706 C10.6941176,7.48235294 10.5617647,7.8 10.5617647,8.17058824 C10.5617647,8.54705882 10.6941176,8.86911765 10.9588235,9.13676471 C11.2235294,9.40441176 11.5470588,9.53823529 11.9294118,9.53823529 Z M9.3,14.6382353 C9.67647059,14.6382353 9.99852941,14.5044118 10.2661765,14.2367647 C10.5338235,13.9691176 10.6676471,13.6441176 10.6676471,13.2617647 C10.6676471,12.8794118 10.5338235,12.5544118 10.2661765,12.2867647 C9.99852941,12.0191176 9.67647059,11.8852941 9.3,11.8852941 C8.91176471,11.8852941 8.58382353,12.0191176 8.31617647,12.2867647 C8.04852941,12.5544118 7.91470588,12.8794118 7.91470588,13.2617647 C7.91470588,13.6441176 8.04852941,13.9691176 8.31617647,14.2367647 C8.58382353,14.5044118 8.91176471,14.6382353 9.3,14.6382353 Z M9,18 C10.2294118,18 11.3867647,17.7647059 12.4720588,17.2941176 C13.5573529,16.8235294 14.5147059,16.1735294 15.3441176,15.3441176 C16.1735294,14.5147059 16.8235294,13.5573529 17.2941176,12.4720588 C17.7647059,11.3867647 18,10.2294118 18,9 C18,7.77058824 17.7647059,6.61323529 17.2941176,5.52794118 C16.8235294,4.44264706 16.1735294,3.48529412 15.3441176,2.65588235 C14.5147059,1.82647059 13.5558824,1.17647059 12.4676471,0.705882353 C11.3794118,0.235294118 10.2205882,0 8.99117647,0 C7.76176471,0 6.60441176,0.235294118 5.51911765,0.705882353 C4.43382353,1.17647059 3.47794118,1.82647059 2.65147059,2.65588235 C1.825,3.48529412 1.17647059,4.44264706 0.705882353,5.52794118 C0.235294118,6.61323529 0,7.77058824 0,9 C0,10.2294118 0.235294118,11.3867647 0.705882353,12.4720588 C1.17647059,13.5573529 1.82647059,14.5147059 2.65588235,15.3441176 C3.48529412,16.1735294 4.44264706,16.8235294 5.52794118,17.2941176 C6.61323529,17.7647059 7.77058824,18 9,18 Z M9,16.8 C7.93529412,16.8 6.93235294,16.5955882 5.99117647,16.1867647 C5.05,15.7779412 4.22058824,15.2147059 3.50294118,14.4970588 C2.78529412,13.7794118 2.22205882,12.95 1.81323529,12.0088235 C1.40441176,11.0676471 1.2,10.0647059 1.2,9 C1.2,7.93529412 1.40441176,6.93235294 1.81323529,5.99117647 C2.22205882,5.05 2.78382353,4.22058824 3.49852941,3.50294118 C4.21323529,2.78529412 5.04117647,2.22205882 5.98235294,1.81323529 C6.92352941,1.40441176 7.92647059,1.2 8.99117647,1.2 C10.0558824,1.2 11.0588235,1.40441176 12,1.81323529 C12.9411765,2.22205882 13.7720588,2.78529412 14.4926471,3.50294118 C15.2132353,4.22058824 15.7779412,5.05 16.1867647,5.99117647 C16.5955882,6.93235294 16.8,7.93529412 16.8,9 C16.8,10.0647059 16.5955882,11.0676471 16.1867647,12.0088235 C15.7779412,12.95 15.2147059,13.7794118 14.4970588,14.4970588 C13.7794118,15.2147059 12.95,15.7779412 12.0088235,16.1867647 C11.0676471,16.5955882 10.0647059,16.8 9,16.8 Z" id="Shape"></path>
                    </g>
                </g>
            </g>
        </g>
    </g>
</svg>