<?xml version="1.0" encoding="UTF-8"?>
<svg width="24px" height="24px" viewBox="0 0 24 24" version="1.1" xmlns="http://www.w3.org/2000/svg" xmlns:xlink="http://www.w3.org/1999/xlink">
    <title>Статистика@1,5x</title>
    <g id="UX/UI" stroke="none" stroke-width="1" fill="none" fillRule="evenodd">
        <g id="main:page-copy-39" transform="translate(-38.000000, -318.000000)">
            <g id="Group-28" transform="translate(32.000000, 72.000000)">
                <g id="Статистика" transform="translate(6.000000, 246.000000)">
                    <rect id="Rectangle" opacity="0" x="0" y="0" width="24" height="24"></rect>
                    <g id="􁂥" transform="translate(3.000000, 4.500000)" fill="#F2F2F2" fillRule="nonzero">
                        <path d="M0,14.359113 C0,14.5538129 0.0613953488,14.7093023 0.184186047,14.8255814 C0.306976744,14.9418605 0.468837209,15 0.669767442,15 L17.3218605,15 C17.5060465,15 17.6651163,14.9378042 17.7990698,14.8134127 C17.9330233,14.6890211 18,14.5348837 18,14.3510005 C18,14.1725257 17.9330233,14.0197404 17.7990698,13.8926447 C17.6651163,13.7655489 17.5060465,13.7020011 17.3218605,13.7020011 L1.58232558,13.7020011 C1.42604651,13.7020011 1.34790698,13.6262845 1.34790698,13.4748513 L1.34790698,0.648999459 C1.34790698,0.475932937 1.28232558,0.32449973 1.15116279,0.194699838 C1.02,0.0648999459 0.862325581,0 0.678139535,0 C0.488372093,0 0.327906977,0.0648999459 0.196744186,0.194699838 C0.0655813953,0.32449973 0,0.475932937 0,0.648999459 L0,14.359113 Z M0.879069767,9.31314224 L6.26232558,6.29529475 L10.1386047,9.51595457 L17.0288372,5.54083288 L16.5013953,4.71335857 L10.2055814,8.34775554 L6.34604651,5.14332071 L0.879069767,8.20173067 L0.879069767,9.31314224 Z M6.15348837,7.39048134 C6.42697674,7.39048134 6.67674419,7.3255814 6.9027907,7.1957815 C7.12883721,7.06598161 7.30883721,6.89156301 7.4427907,6.67252569 C7.57674419,6.45348837 7.64372093,6.21146566 7.64372093,5.94645754 C7.64372093,5.68144943 7.57674419,5.43942672 7.4427907,5.2203894 C7.30883721,5.00135208 7.12883721,4.82828556 6.9027907,4.70118983 C6.67674419,4.5740941 6.42697674,4.51054624 6.15348837,4.51054624 C5.88,4.51054624 5.63023256,4.5740941 5.40418605,4.70118983 C5.17813953,4.82828556 4.99813953,5.00135208 4.86418605,5.2203894 C4.73023256,5.43942672 4.66325581,5.68144943 4.66325581,5.94645754 C4.66325581,6.21146566 4.73023256,6.45348837 4.86418605,6.67252569 C4.99813953,6.89156301 5.17813953,7.06598161 5.40418605,7.1957815 C5.63023256,7.3255814 5.88,7.39048134 6.15348837,7.39048134 Z M10.1051163,10.3677664 C10.3786047,10.3677664 10.6283721,10.3028664 10.8544186,10.1730665 C11.0804651,10.0432666 11.2590698,9.86884803 11.3902326,9.64981071 C11.5213953,9.43077339 11.5869767,9.18875068 11.5869767,8.92374256 C11.5869767,8.65873445 11.5213953,8.41671174 11.3902326,8.19767442 C11.2590698,7.9786371 11.0804651,7.80557058 10.8544186,7.67847485 C10.6283721,7.55137912 10.3786047,7.48783126 10.1051163,7.48783126 C9.83162791,7.48783126 9.58186047,7.55137912 9.35581395,7.67847485 C9.12976744,7.80557058 8.94976744,7.9786371 8.81581395,8.19767442 C8.68186047,8.41671174 8.61488372,8.65873445 8.61488372,8.92374256 C8.61488372,9.18875068 8.68186047,9.43077339 8.81581395,9.64981071 C8.94976744,9.86884803 9.12976744,10.0432666 9.35581395,10.1730665 C9.58186047,10.3028664 9.83162791,10.3677664 10.1051163,10.3677664 Z M16.4176744,6.67658194 C16.6911628,6.67658194 16.9409302,6.61168199 17.1669767,6.4818821 C17.3930233,6.35208221 17.5730233,6.1776636 17.7069767,5.95862628 C17.8409302,5.73958897 17.907907,5.49756625 17.907907,5.23255814 C17.907907,4.96755003 17.8409302,4.72552731 17.7069767,4.50648999 C17.5730233,4.28745268 17.3930233,4.11303407 17.1669767,3.98323418 C16.9409302,3.85343429 16.6911628,3.78853434 16.4176744,3.78853434 C16.144186,3.78853434 15.8944186,3.85343429 15.6683721,3.98323418 C15.4423256,4.11303407 15.2623256,4.28745268 15.1283721,4.50648999 C14.9944186,4.72552731 14.9274419,4.96755003 14.9274419,5.23255814 C14.9274419,5.49756625 14.9944186,5.73958897 15.1283721,5.95862628 C15.2623256,6.1776636 15.4423256,6.35208221 15.6683721,6.4818821 C15.8944186,6.61168199 16.144186,6.67658194 16.4176744,6.67658194 Z" id="Shape"></path>
                    </g>
                </g>
            </g>
        </g>
    </g>
</svg>