<?xml version="1.0" encoding="UTF-8"?>
<svg width="24px" height="24px" viewBox="0 0 24 24" version="1.1" xmlns="http://www.w3.org/2000/svg" xmlns:xlink="http://www.w3.org/1999/xlink">
    <title>Целы@1,5x</title>
    <g id="UX/UI" stroke="none" stroke-width="1" fill="none" fillRule="evenodd">
        <g id="main:page-copy-39" transform="translate(-38.000000, -390.000000)">
            <g id="Group-28" transform="translate(32.000000, 72.000000)">
                <g id="Целы" transform="translate(6.000000, 318.000000)">
                    <rect id="Rectangle" opacity="0" x="0" y="0" width="24" height="24"></rect>
                    <g id="􀐩" transform="translate(1.000000, 1.000000)" fill="#F2F2F2" fillRule="nonzero">
                        <path d="M11,19.5575658 C12.1759868,19.5575658 13.2796053,19.3359375 14.3108553,18.8926809 C15.3421053,18.4494243 16.2497259,17.8342928 17.0337171,17.0472862 C17.8177083,16.2602796 18.4313322,15.3496436 18.8745888,14.3153783 C19.3178454,13.2811129 19.5394737,12.1759868 19.5394737,11 C19.5394737,9.82401316 19.3178454,8.71888706 18.8745888,7.68462171 C18.4313322,6.65035636 17.8177083,5.73972039 17.0337171,4.95271382 C16.2497259,4.16570724 15.3421053,3.55057566 14.3108553,3.10731908 C13.2796053,2.6640625 12.1759868,2.44243421 11,2.44243421 C9.82401316,2.44243421 8.72039474,2.6640625 7.68914474,3.10731908 C6.65789474,3.55057566 5.75027412,4.16570724 4.96628289,4.95271382 C4.18229167,5.73972039 3.56866776,6.65035636 3.12541118,7.68462171 C2.68215461,8.71888706 2.46052632,9.82401316 2.46052632,11 C2.46052632,12.1759868 2.68215461,13.2811129 3.12541118,14.3153783 C3.56866776,15.3496436 4.18229167,16.2602796 4.96628289,17.0472862 C5.75027412,17.8342928 6.65789474,18.4494243 7.68914474,18.8926809 C8.72039474,19.3359375 9.82401316,19.5575658 11,19.5575658 Z M11,18.0830592 C10.0169956,18.0830592 9.10183662,17.9021382 8.25452303,17.5402961 C7.40720943,17.1784539 6.66392544,16.6748904 6.02467105,16.0296053 C5.38541667,15.3843202 4.88486842,14.6319901 4.52302632,13.7726151 C4.16118421,12.9132401 3.98026316,11.9890351 3.98026316,11 C3.98026316,10.0109649 4.16118421,9.08826754 4.52302632,8.23190789 C4.88486842,7.37554825 5.38541667,6.6232182 6.02467105,5.97491776 C6.66392544,5.32661732 7.40720943,4.82154605 8.25452303,4.45970395 C9.10183662,4.09786184 10.0169956,3.91694079 11,3.91694079 C11.9830044,3.91694079 12.8981634,4.09786184 13.745477,4.45970395 C14.5927906,4.82154605 15.3360746,5.32661732 15.9753289,5.97491776 C16.6145833,6.6232182 17.1151316,7.37554825 17.4769737,8.23190789 C17.8388158,9.08826754 18.0197368,10.0109649 18.0197368,11 C18.0197368,11.9890351 17.8388158,12.9132401 17.4769737,13.7726151 C17.1151316,14.6319901 16.6145833,15.3843202 15.9753289,16.0296053 C15.3360746,16.6748904 14.5927906,17.1784539 13.745477,17.5402961 C12.8981634,17.9021382 11.9830044,18.0830592 11,18.0830592 Z M11,22 C11.1809211,22 11.3331963,21.9366776 11.4568257,21.8100329 C11.580455,21.6833882 11.6422697,21.5296053 11.6422697,21.3486842 L11.6422697,15.2245066 C11.6422697,15.0435855 11.580455,14.8913103 11.4568257,14.7676809 C11.3331963,14.6440515 11.1809211,14.5822368 11,14.5822368 C10.8190789,14.5822368 10.6652961,14.6440515 10.5386513,14.7676809 C10.4120066,14.8913103 10.3486842,15.0435855 10.3486842,15.2245066 L10.3486842,21.3486842 C10.3486842,21.5296053 10.4120066,21.6833882 10.5386513,21.8100329 C10.6652961,21.9366776 10.8190789,22 11,22 Z M0.651315789,11.6513158 L6.77549342,11.6513158 C6.95641447,11.6513158 7.11019737,11.5879934 7.23684211,11.4613487 C7.36348684,11.3347039 7.42680921,11.1809211 7.42680921,11 C7.42680921,10.8190789 7.36348684,10.6668037 7.23684211,10.5431743 C7.11019737,10.419545 6.95641447,10.3577303 6.77549342,10.3577303 L0.651315789,10.3577303 C0.470394737,10.3577303 0.316611842,10.419545 0.189967105,10.5431743 C0.0633223684,10.6668037 0,10.8190789 0,11 C0,11.1809211 0.0633223684,11.3347039 0.189967105,11.4613487 C0.316611842,11.5879934 0.470394737,11.6513158 0.651315789,11.6513158 Z M11,7.42680921 C11.1809211,7.42680921 11.3331963,7.36348684 11.4568257,7.23684211 C11.580455,7.11019737 11.6422697,6.95641447 11.6422697,6.77549342 L11.6422697,0.651315789 C11.6422697,0.470394737 11.580455,0.316611842 11.4568257,0.189967105 C11.3331963,0.0633223684 11.1809211,0 11,0 C10.8190789,0 10.6652961,0.0633223684 10.5386513,0.189967105 C10.4120066,0.316611842 10.3486842,0.470394737 10.3486842,0.651315789 L10.3486842,6.77549342 C10.3486842,6.95641447 10.4120066,7.11019737 10.5386513,7.23684211 C10.6652961,7.36348684 10.8190789,7.42680921 11,7.42680921 Z M15.2245066,11.6513158 L21.3486842,11.6513158 C21.5296053,11.6513158 21.6833882,11.5879934 21.8100329,11.4613487 C21.9366776,11.3347039 22,11.1809211 22,11 C22,10.8190789 21.9366776,10.6668037 21.8100329,10.5431743 C21.6833882,10.419545 21.5296053,10.3577303 21.3486842,10.3577303 L15.2245066,10.3577303 C15.0435855,10.3577303 14.8898026,10.419545 14.7631579,10.5431743 C14.6365132,10.6668037 14.5731908,10.8190789 14.5731908,11 C14.5731908,11.1809211 14.6365132,11.3347039 14.7631579,11.4613487 C14.8898026,11.5879934 15.0435855,11.6513158 15.2245066,11.6513158 Z" id="Shape"></path>
                    </g>
                </g>
            </g>
        </g>
    </g>
</svg>