<svg width="20" height="20" viewBox="0 0 20 20" fill="none" xmlns="http://www.w3.org/2000/svg">
<g id="telegram-new-2019-seeklogo.com">
<circle id="Oval" cx="10" cy="10" r="10" fill="url(#paint0_linear_1350_47)"/>
<path id="Path" d="M4.16184 9.91374L10.8959 7.13917C11.5607 6.85015 13.815 5.9253 13.815 5.9253C13.815 5.9253 14.8555 5.52067 14.7688 6.50333C14.7399 6.90796 14.5087 8.32414 14.2774 9.85593L13.5549 14.3935C13.5549 14.3935 13.4971 15.0582 13.0058 15.1739C12.5144 15.2895 11.7052 14.7692 11.5607 14.6536C11.4451 14.5669 9.39305 13.2663 8.64161 12.6305C8.4393 12.4571 8.20808 12.1103 8.67051 11.7056C9.71097 10.7519 10.9537 9.56692 11.7052 8.81547C12.052 8.46865 12.3988 7.6594 10.9537 8.64206L6.8786 11.3877C6.8786 11.3877 6.41618 11.6767 5.54912 11.4166C4.68207 11.1565 3.67051 10.8097 3.67051 10.8097C3.67051 10.8097 2.97687 10.3762 4.16184 9.91374Z" fill="white"/>
</g>
<defs>
<linearGradient id="paint0_linear_1350_47" x1="7.50116" y1="0.834104" x2="2.50116" y2="12.5" gradientUnits="userSpaceOnUse">
<stop stop-color="#37AEE2"/>
<stop offset="1" stop-color="#1E96C8"/>
</linearGradient>
</defs>
</svg>
