<svg width="36" height="36" viewBox="0 0 36 36" fill="none" xmlns="http://www.w3.org/2000/svg">
<circle cx="18" cy="18" r="18" fill="url(#paint0_linear_1_61)"/>
<path d="M7.49122 17.8438L19.6126 12.8496C20.8091 12.3294 24.8669 10.6647 24.8669 10.6647C24.8669 10.6647 26.7398 9.93633 26.5837 11.7051C26.5317 12.4334 26.1155 14.9826 25.6993 17.7398L24.3987 25.9074C24.3987 25.9074 24.2947 27.104 23.4103 27.3121C22.5259 27.5201 21.0693 26.5837 20.8091 26.3756C20.601 26.2196 16.9074 23.8785 15.5548 22.734C15.1906 22.4219 14.7745 21.7976 15.6068 21.0693C17.4797 19.3525 19.7166 17.2196 21.0693 15.867C21.6935 15.2427 22.3178 13.786 19.7166 15.5548L12.3814 20.497C12.3814 20.497 11.549 21.0173 9.98833 20.5491C8.42763 20.0808 6.60682 19.4566 6.60682 19.4566C6.60682 19.4566 5.35827 18.6762 7.49122 17.8438Z" fill="white"/>
<defs>
<linearGradient id="paint0_linear_1_61" x1="13.5021" y1="1.50139" x2="4.50208" y2="22.5" gradientUnits="userSpaceOnUse">
<stop stop-color="#37AEE2"/>
<stop offset="1" stop-color="#1E96C8"/>
</linearGradient>
</defs>
</svg>
