<svg width="20" height="20" viewBox="0 0 20 20" fill="none" xmlns="http://www.w3.org/2000/svg">
<g id="vk-svgrepo-com (1)">
<rect id="Rectangle" width="20" height="20" rx="10" fill="#5281B8"/>
<path id="Path" d="M10.5788 13.3018C10.7404 13.2709 11.0313 13.2091 11.0313 12.8386C11.0313 12.8386 10.9989 11.9124 11.4514 11.7888C11.9039 11.6653 12.4857 12.6842 13.0998 13.0856C13.5523 13.3635 13.9078 13.3326 13.9078 13.3326L15.5561 13.3018C15.5561 13.3018 16.3965 13.24 16.0086 12.5916C15.9763 12.5299 15.7177 12.1285 14.7481 11.2948C13.7462 10.3686 13.9078 10.5229 15.1037 8.94827C15.847 7.99112 16.1702 7.40448 16.0733 7.18835C15.944 6.97222 15.4269 7.00309 15.4269 7.00309H13.5846C13.3907 7.00309 13.2937 7.03397 13.1967 7.18835C13.1967 7.18835 12.9059 7.96025 12.518 8.57776C11.71 9.90542 11.3868 9.96717 11.2252 9.87455C10.9343 9.72017 10.9989 9.13353 10.9989 8.73214C10.9989 7.34273 11.2252 6.84872 10.5788 6.72521C10.1586 6.66346 8.67185 6.60171 8.21936 6.81784C7.99312 6.94134 7.86384 7.15747 7.9608 7.18835C8.05776 7.18835 8.34865 7.21923 8.51025 7.40448C8.76881 7.80587 8.80113 9.72017 8.44561 9.90542C7.9608 10.2451 6.73262 7.99112 6.44173 7.2501C6.37709 7.06485 6.28013 7.03397 6.05388 6.97222H4.27625C4.08233 6.97222 3.79144 7.00309 3.92072 7.3736C4.79338 9.10265 6.60333 13.3326 9.86771 13.3018H10.5788Z" fill="white"/>
</g>
</svg>
