<svg width="36" height="36" viewBox="0 0 36 36" fill="none" xmlns="http://www.w3.org/2000/svg">
<rect width="36" height="36" rx="18" fill="#5281B8"/>
<path d="M19.0422 23.9426C19.3331 23.887 19.8567 23.7759 19.8567 23.1089C19.8567 23.1089 19.7985 21.4416 20.613 21.2193C21.4274 20.997 22.4746 22.8311 23.58 23.5536C24.3945 24.0537 25.0344 23.9982 25.0344 23.9982L28.0014 23.9426C28.0014 23.9426 29.514 23.8314 28.8159 22.6643C28.7577 22.5532 28.2923 21.8307 26.547 20.3301C24.7435 18.6628 25.0344 18.9407 27.187 16.1063C28.525 14.3834 29.1068 13.3275 28.9323 12.9384C28.6996 12.5494 27.7687 12.605 27.7687 12.605H24.4526C24.1036 12.605 23.929 12.6606 23.7545 12.9384C23.7545 12.9384 23.2309 14.3279 22.5328 15.4394C21.0784 17.8292 20.4966 17.9403 20.2057 17.7736C19.6821 17.4957 19.7985 16.4398 19.7985 15.7173C19.7985 13.2163 20.2057 12.3271 19.0422 12.1048C18.2859 11.9936 15.6097 11.8825 14.7952 12.2715C14.388 12.4938 14.1553 12.8829 14.3298 12.9384C14.5044 12.9384 15.028 12.994 15.3188 13.3275C15.7843 14.05 15.8424 17.4957 15.2025 17.8292C14.3298 18.4405 12.1191 14.3834 11.5955 13.0496C11.4792 12.7161 11.3046 12.6606 10.8974 12.5494H7.69764C7.34858 12.5494 6.82498 12.605 7.05769 13.2719C8.62847 16.3842 11.8864 23.9982 17.7623 23.9426H19.0422Z" fill="white"/>
</svg>
