<svg width="24" height="24" viewBox="0 0 24 24" fill="none" xmlns="http://www.w3.org/2000/svg">
<g id="Group 4 Copy 6">
<g id="&#244;&#128;&#134;&#132;">
<path id="Path" d="M6.19769 17.8022C6.28848 17.888 6.39188 17.946 6.50788 17.9763C6.62389 18.0066 6.73989 18.0066 6.8559 17.9763C6.9719 17.946 7.07278 17.888 7.15852 17.8022L12.0005 12.958L16.8425 17.8022C16.9282 17.888 17.0291 17.946 17.1451 17.9763C17.2611 18.0066 17.3784 18.0078 17.4969 17.9801C17.6154 17.9523 17.7176 17.893 17.8033 17.8022C17.889 17.7164 17.9458 17.6155 17.9735 17.4994C18.0013 17.3834 18.0013 17.2673 17.9735 17.1513C17.9458 17.0352 17.889 16.9343 17.8033 16.8485L12.9613 11.9967L17.8033 7.1524C17.889 7.06662 17.947 6.9657 17.9773 6.84964C18.0076 6.73358 18.0076 6.61752 17.9773 6.50146C17.947 6.3854 17.889 6.28447 17.8033 6.19869C17.7125 6.10786 17.6091 6.04857 17.4931 6.02082C17.3771 5.99306 17.2611 5.99306 17.1451 6.02082C17.0291 6.04857 16.9282 6.10786 16.8425 6.19869L12.0005 11.043L7.15852 6.19869C7.07278 6.10786 6.97064 6.04857 6.85211 6.02082C6.73359 5.99306 6.61632 5.99306 6.50032 6.02082C6.38431 6.04857 6.28344 6.10786 6.19769 6.19869C6.11195 6.28447 6.05521 6.3854 6.02747 6.50146C5.99973 6.61752 5.99973 6.73358 6.02747 6.84964C6.05521 6.9657 6.11195 7.06662 6.19769 7.1524L11.0397 11.9967L6.19769 16.8485C6.11195 16.9343 6.05395 17.0352 6.02368 17.1513C5.99342 17.2673 5.99216 17.3834 6.0199 17.4994C6.04764 17.6155 6.1069 17.7164 6.19769 17.8022Z" fill="#808080"/>
</g>
</g>
</svg>
