<svg width="16" height="16" viewBox="0 0 16 16" fill="none" xmlns="http://www.w3.org/2000/svg">
<g id="Group 4 Copy 17">
<g id="&#244;&#128;&#134;&#132;">
<path id="Path" d="M4.13179 11.8681C4.19232 11.9253 4.26125 11.964 4.33859 11.9842C4.41592 12.0044 4.49326 12.0044 4.5706 11.9842C4.64794 11.964 4.71519 11.9253 4.77235 11.8681L8.00033 8.63863L11.2283 11.8681C11.2855 11.9253 11.3527 11.964 11.4301 11.9842C11.5074 12.0044 11.5856 12.0052 11.6646 11.9867C11.7436 11.9682 11.8117 11.9287 11.8689 11.8681C11.926 11.811 11.9639 11.7437 11.9823 11.6663C12.0008 11.5889 12.0008 11.5116 11.9823 11.4342C11.9639 11.3568 11.926 11.2895 11.8689 11.2323L8.64088 7.99778L11.8689 4.76827C11.926 4.71108 11.9647 4.6438 11.9849 4.56643C12.005 4.48905 12.005 4.41168 11.9849 4.3343C11.9647 4.25693 11.926 4.18965 11.8689 4.13246C11.8083 4.07191 11.7394 4.03238 11.6621 4.01388C11.5847 3.99537 11.5074 3.99537 11.4301 4.01388C11.3527 4.03238 11.2855 4.07191 11.2283 4.13246L8.00033 7.36197L4.77235 4.13246C4.71519 4.07191 4.64709 4.03238 4.56808 4.01388C4.48906 3.99537 4.41088 3.99537 4.33354 4.01388C4.25621 4.03238 4.18896 4.07191 4.13179 4.13246C4.07463 4.18965 4.0368 4.25693 4.01831 4.3343C3.99982 4.41168 3.99982 4.48905 4.01831 4.56643C4.0368 4.6438 4.07463 4.71108 4.13179 4.76827L7.35978 7.99778L4.13179 11.2323C4.07463 11.2895 4.03596 11.3568 4.01579 11.4342C3.99561 11.5116 3.99477 11.5889 4.01327 11.6663C4.03176 11.7437 4.07127 11.811 4.13179 11.8681Z" fill="#808080"/>
</g>
</g>
</svg>
