<svg width="36" height="36" viewBox="0 0 36 36" fill="none" xmlns="http://www.w3.org/2000/svg">
<path d="M0 18C0 8.0586 8.0568 0 18 0C27.9396 0 36 8.0586 36 18C36 27.9414 27.9396 36 18 36C8.0568 36 0 27.9414 0 18Z" fill="#FC3F1D"/>
<path d="M20.3041 10.1989H18.6409C15.5917 10.1989 13.9879 11.7433 13.9879 14.0203C13.9879 16.5943 15.0967 17.8003 17.3737 19.3465L19.2547 20.6137L13.8493 28.6903H9.81006L14.6611 21.4651C11.8711 19.4653 10.3051 17.5231 10.3051 14.2381C10.3051 10.1197 13.1761 7.30811 18.6211 7.30811H24.0265V28.6705H20.3041V10.1989Z" fill="white"/>
</svg>
