<svg width="20" height="20" viewBox="0 0 20 20" fill="none" xmlns="http://www.w3.org/2000/svg">
<g id="Yandex_icon">
<path id="Path" d="M0 10C0 4.477 4.476 0 10 0C15.522 0 20 4.477 20 10C20 15.523 15.522 20 10 20C4.476 20 0 15.523 0 10Z" fill="#FC3F1D"/>
<path id="Path_2" d="M11.2802 5.66557H10.3562C8.6622 5.66557 7.7712 6.52357 7.7712 7.78857C7.7712 9.21857 8.3872 9.88857 9.6522 10.7476L10.6972 11.4516L7.6942 15.9386H5.4502L8.1452 11.9246C6.5952 10.8136 5.7252 9.73457 5.7252 7.90957C5.7252 5.62157 7.3202 4.05957 10.3452 4.05957H13.3482V15.9276H11.2802V5.66557Z" fill="white"/>
</g>
</svg>
