<svg width="16" height="16" viewBox="0 0 16 16" fill="none" xmlns="http://www.w3.org/2000/svg">
<path d="M14.6666 8.00016C14.6666 11.6823 11.682 14.6668 7.99991 14.6668C4.31779 14.6668 1.33325 11.6823 1.33325 8.00016C1.33325 4.31804 4.3178 1.3335 7.99992 1.3335C11.6812 1.3335 14.6666 4.31804 14.6666 8.00016Z" fill="#E42313"/>
<path fillRule="evenodd" clipRule="evenodd" d="M9.83115 7.57574C9.92132 7.5618 10.2131 7.52737 10.2025 7.64951C10.1868 7.83053 10.1233 7.84363 9.91358 7.8869L9.84918 7.90034L9.79637 7.91171L9.79631 7.91172C9.76276 7.91898 9.72815 7.92647 9.6918 7.93396C9.6877 7.94707 9.6836 7.95445 9.68033 7.95527C9.60516 8.30439 9.58272 8.4892 9.55307 8.73342V8.73342L9.55307 8.73343L9.55307 8.73344C9.54359 8.81147 9.53338 8.89556 9.52048 8.99302C9.51602 9.0261 9.51361 9.05965 9.51125 9.09252L9.51125 9.09254C9.50103 9.23473 9.49173 9.36415 9.32129 9.38811C9.11145 9.41763 9.03931 9.20204 9.04013 9.01761C9.04013 8.70725 9.18998 8.11427 9.20528 8.05373L9.20653 8.04872C8.99259 8.10282 8.76389 8.16511 8.5352 8.23643C8.26469 8.69629 7.7696 9.80452 7.70812 10.0816C7.65811 10.3037 7.55811 10.3718 7.40975 10.307C7.2622 10.2423 7.17941 10.0947 7.23024 9.92831C7.35128 9.52556 7.76868 8.7093 7.87298 8.50533L7.87298 8.50531C7.88734 8.47723 7.89577 8.46076 7.89666 8.45858C7.70403 8.53562 7.52369 8.61924 7.36877 8.70776C7.27204 8.76268 7.14909 8.71022 7.1245 8.59464L7.12342 8.58954C7.10581 8.5061 7.07257 8.34863 7.25647 8.26512C7.55811 8.12822 7.88517 8.01346 8.21223 7.91919C8.90734 6.75194 9.76967 5.55434 10.018 5.57647C10.0827 5.58187 10.1026 5.62564 10.1284 5.68257C10.1458 5.72086 10.1659 5.76511 10.2041 5.80763C10.2984 5.91173 10.3115 5.97649 10.1992 6.25437C10.154 6.36699 10.1184 6.45221 10.0887 6.5233L10.0886 6.52346L10.0886 6.52349C9.96773 6.8129 9.94471 6.86803 9.76639 7.58393C9.78797 7.58239 9.80738 7.5794 9.82735 7.57632L9.83115 7.57574ZM10.1631 9.19384C10.3353 9.17662 10.8369 9.06678 10.8418 8.51512C10.8429 8.38498 10.7671 8.29273 10.6966 8.20685C10.6517 8.15209 10.6088 8.09992 10.5894 8.04215C10.5582 7.95035 10.5656 7.76099 10.7107 7.70444C10.8647 7.64395 10.9137 7.72165 10.9634 7.80033C10.9716 7.81336 10.9798 7.82641 10.9886 7.83886C11.0148 7.87493 11.0968 7.86673 11.1246 7.83722C11.164 7.79707 11.2214 7.73559 11.2451 7.63312C11.2673 7.53886 11.1664 7.37983 10.8746 7.38967C10.7722 7.39213 10.6287 7.40934 10.4246 7.60361C10.3295 7.69378 10.0303 8.10282 10.2517 8.45365C10.2659 8.47629 10.285 8.50018 10.3045 8.52465L10.3045 8.52466C10.3671 8.60298 10.4343 8.68723 10.3631 8.7553C10.2189 8.89465 9.96968 8.67907 9.92297 8.61432C9.90165 8.58399 9.84017 8.54874 9.80001 8.60858C9.77705 8.64301 9.66558 8.84056 9.68278 8.91433C9.73279 9.14383 10.0287 9.20777 10.1631 9.19384ZM8.79832 7.77001C9.10243 7.24785 9.43933 6.72488 9.75245 6.31421C9.59671 6.6839 9.43933 7.179 9.30736 7.66426C9.14752 7.69459 8.97619 7.72902 8.79832 7.77001ZM12.0411 6.97489C12.1919 6.94783 12.3231 6.81258 12.3345 6.67242C12.346 6.53307 12.2337 6.44208 12.0829 6.46913C11.9321 6.49618 11.8001 6.63144 11.7894 6.7716C11.7771 6.91014 11.8911 7.00194 12.0411 6.97489ZM13.7969 7.90527C13.8354 7.80526 13.6903 7.77001 13.6215 7.87821C13.5551 7.98313 13.4944 8.07248 13.4075 8.16594C13.3296 8.24708 13.2673 8.27905 13.2345 8.26758C13.146 8.23643 13.196 8.1143 13.2878 7.93396C13.3305 7.84953 13.3911 7.74051 13.446 7.64624C13.5239 7.52411 13.5403 7.48968 13.5452 7.44541C13.5534 7.38229 13.5133 7.34213 13.3919 7.29295C13.3149 7.26016 13.3083 7.25442 13.2772 7.16753C13.2329 7.0626 13.1395 7.01015 13.0255 7.02571C12.8509 7.04785 12.5788 7.25113 12.3378 7.53803C12.2493 7.63394 11.9501 8.0233 11.9124 8.07248L11.8657 8.13232C11.7353 8.30445 11.6984 8.34544 11.6394 8.40692C11.5829 8.46184 11.5353 8.49299 11.5042 8.49709C11.4812 8.50037 11.4714 8.48398 11.4755 8.45447C11.4812 8.4102 11.5009 8.35037 11.5427 8.27249C11.6099 8.14134 11.7165 7.94706 11.8001 7.81673C11.8452 7.73968 11.923 7.59787 11.9296 7.58229L11.9738 7.50852C12.0878 7.31179 11.914 7.21752 11.7829 7.22736C11.732 7.23146 11.646 7.26753 11.6033 7.29786C11.5697 7.32 11.5648 7.32819 11.555 7.37246C11.5443 7.42737 11.4665 7.59049 11.3853 7.73476C11.2845 7.91018 11.1746 8.12658 11.1041 8.28314C11.0369 8.43971 10.9968 8.5643 10.9828 8.67086C10.9517 8.90448 11.0492 9.03646 11.2337 9.01187C11.3714 8.99466 11.5197 8.86678 11.7001 8.66595C11.7583 8.60202 11.823 8.51431 11.8845 8.4225C11.8517 8.68481 11.9861 8.86432 12.2181 8.83399C12.3722 8.81267 12.5009 8.70366 12.6681 8.5266C12.6903 8.50528 12.6993 8.49709 12.7116 8.49545C12.7231 8.49381 12.7337 8.50283 12.7345 8.52496L12.7427 8.54874C12.7657 8.6684 12.8591 8.72414 12.9928 8.70611C13.1575 8.68399 13.3403 8.56513 13.5387 8.32249C13.6993 8.13151 13.7633 7.99134 13.7969 7.90527ZM12.6772 8.19871C12.8345 8.00608 13.0788 7.5618 13.0944 7.44048C13.1018 7.38474 13.0854 7.36261 13.0411 7.36835C12.9862 7.37491 12.8649 7.47491 12.7493 7.61589C12.5796 7.81836 12.3517 8.2274 12.3337 8.36347C12.3271 8.41839 12.3485 8.45446 12.3886 8.45036C12.4518 8.44135 12.5599 8.3479 12.6772 8.19871ZM7.44827 7.57492C7.57532 7.42655 7.30973 7.26671 7.19252 7.28802L7.19249 7.28802C7.1302 7.29868 7.05804 7.31102 6.77693 7.62657C6.8466 7.50524 6.8679 7.40606 6.78429 7.35114C6.69577 7.29376 6.54248 7.33802 6.45724 7.39212C6.40554 7.42444 6.4032 7.44083 6.39451 7.50172L6.39412 7.50442C6.38593 7.54705 6.34658 7.63967 6.31951 7.69131L6.23427 7.86591C5.96248 8.32236 5.79221 8.49873 5.71363 8.58013C5.69907 8.59521 5.68766 8.60703 5.67933 8.61677C5.62359 8.67415 5.57851 8.70694 5.54736 8.71268C5.5244 8.71677 5.51375 8.70038 5.51703 8.67169C5.5203 8.62743 5.53669 8.56676 5.57441 8.48726C5.63425 8.35201 5.73261 8.15281 5.80884 8.02003C5.84983 7.93969 5.95721 7.75198 5.95721 7.75198C6.05886 7.53394 5.86704 7.45771 5.75475 7.4741C5.74864 7.47502 5.73142 7.4771 5.70481 7.48032L5.70481 7.48032L5.70481 7.48032C5.58857 7.49437 5.29339 7.53007 4.96456 7.58476C5.14223 6.86746 5.16449 6.81437 5.28695 6.52232C5.31646 6.45193 5.3518 6.36765 5.39654 6.25684C5.50802 5.97897 5.49572 5.91502 5.40146 5.8101C5.36308 5.76743 5.343 5.72315 5.32564 5.68487C5.29997 5.62829 5.28025 5.58481 5.2162 5.57894C4.96701 5.55682 4.10222 6.76015 3.40547 7.92987C3.07759 8.02494 2.74971 8.13724 2.44642 8.26922C2.24809 8.35548 2.28289 8.51311 2.30124 8.59627L2.30215 8.60038C2.32674 8.71596 2.45707 8.7676 2.56036 8.71186C2.71774 8.62579 2.89725 8.54546 3.09071 8.47004C3.08497 8.48234 3.08251 8.4889 3.08497 8.48808C2.82102 8.96679 2.52429 9.63403 2.42756 9.93076C2.37346 10.0963 2.45953 10.2447 2.60708 10.3095C2.75544 10.3734 2.85544 10.3045 2.90544 10.0832C2.96774 9.80616 3.34153 8.94956 3.72023 8.25691C3.72023 8.25691 3.72269 8.25446 3.72597 8.24954C3.95467 8.17987 4.18501 8.11592 4.40305 8.06018C4.26944 8.60611 4.23501 8.83235 4.23747 9.01924C4.2383 9.20449 4.30797 9.41925 4.51863 9.38975C4.68983 9.36568 4.69899 9.23521 4.70902 9.09228C4.71129 9.06001 4.71359 9.02711 4.71782 8.99465C4.73039 8.89991 4.74045 8.81781 4.74979 8.7416L4.74979 8.74158V8.74158C4.78003 8.4947 4.8027 8.30973 4.87848 7.95772C4.88094 7.95772 4.8834 7.9528 4.88667 7.94542C5.11948 7.89297 5.31784 7.85199 5.45719 7.82493C5.43753 7.86591 5.41539 7.911 5.39161 7.95772C5.29982 8.13805 5.20062 8.35856 5.13751 8.51922C5.07767 8.67825 5.04489 8.80366 5.03587 8.91104C5.01619 9.14712 5.1203 9.27417 5.30391 9.24056C5.44162 9.21597 5.65147 9.03727 5.88754 8.68234C5.86131 8.76677 5.84492 8.83644 5.84328 8.87989C5.83589 9.0635 5.93016 9.21515 6.23838 9.01432C6.26952 8.99383 6.27362 8.96431 6.27444 8.9053C6.29002 8.70693 6.37363 8.4438 6.55806 8.17412C6.70233 7.96674 6.80398 7.8487 6.93513 7.79378C7.01945 7.75887 7.09266 7.74051 7.15797 7.72413C7.2736 7.69514 7.36445 7.67236 7.44827 7.57492ZM4.50552 7.66672C4.63667 7.18146 4.79406 6.68472 4.95062 6.31421C4.63586 6.72652 4.29731 7.25195 3.9932 7.77656C4.17025 7.73476 4.34239 7.69869 4.50552 7.66672ZM6.38183 6.87079C6.3933 6.73144 6.281 6.63963 6.13018 6.6675C5.97935 6.69455 5.8482 6.82898 5.8359 6.96833C5.82443 7.1085 5.93755 7.20031 6.08755 7.17325C6.23838 7.14621 6.37035 7.01014 6.38183 6.87079Z" fill="white"/>
</svg>
